<svg xmlns="http://www.w3.org/2000/svg" xmlns:xlink="http://www.w3.org/1999/xlink" xmlns:inkscape="http://www.inkscape.org/namespaces/inkscape" version="1.1" width="250.986" height="108.415" viewBox="0 0 250.986 108.415">
<defs>
<path id="font_0_1" d="M.43399049 .3254242C.5359955 .35342408 .60798647 .42539979 .60798647 .50737 .60798647 .6103363 .49198915 .69433596 .34899903 .69433596H.09700012V0H.18998719V.3154297H.34999085L.5399933 0H.6359863L.43399049 .3254242M.18998719 .38041688V.6353302H.33699037C.45298768 .6353302 .5209961 .5793457 .5209961 .50737 .5209961 .44239808 .45999146 .38041688 .33699037 .38041688H.18998719Z"/>
<path id="font_1_1" d="M.33198548 .66430667C.33299256 .66830447 .33499146 .67430117 .33499146 .67930606 .33499146 .6953125 .31498719 .6943054 .30299378 .69329836L.19099427 .6843109C.17399597 .68330386 .16099549 .682312 .16099549 .65830996 .16099549 .64331057 .17399597 .64331057 .18998719 .64331057 .21899414 .64331057 .22599793 .64030459 .23899842 .63630679 .23899842 .62431338 .23899842 .62231448 .23498535 .60632327L.09498596 .04725647C.09098816 .031234742 .09098816 .026229859 .09098816 .024230957 .09098816-.00077819827 .11099243-.009765625 .12599182-.009765625 .13598633-.009765625 .1539917-.0057678224 .16699219 .01322937 .17399597 .026229859 .21398926 .19239807 .22099304 .22442627 .28799439 .21942139 .3600006 .20339966 .3600006 .14434815 .3600006 .13934326 .3600006 .13433838 .35699464 .12332153 .35398866 .108306888 .35398866 .10231018 .35398866 .09429932 .35398866 .02822876 .4099884-.009765625 .46699525-.009765625 .56399539-.009765625 .598999 .13633728 .598999 .14434815 .598999 .14634705 .59799197 .15835572 .5799866 .15835572 .56599429 .15835572 .56399539 .15235901 .5589905 .13534546 .548996 .0993042 .5209961 .023223877 .46998597 .023223877 .43199159 .023223877 .43199159 .06626892 .43199159 .07728577 .43199159 .09329224 .43199159 .09429932 .43699647 .11431885 .43699647 .11532593 .44198609 .13534546 .44198609 .14735413 .44198609 .22442627 .35499574 .2484436 .27799989 .25546266 .3019867 .2704773 .32299806 .28648377 .36299134 .3215027 .41299439 .36549378 .46499635 .4084015 .519989 .4084015 .5329895 .4084015 .54499819 .40542604 .55400088 .3955078 .5189972 .38850404 .5039978 .36050416 .5039978 .3394928 .5039978 .30749513 .5299988 .3005066 .5439911 .3005066 .56599429 .3005066 .60198977 .3164978 .60198977 .36650086 .60198977 .4093933 .56999209 .44140626 .5209961 .44140626 .45799256 .44140626 .39898683 .39349366 .35299684 .35350038 .30099488 .3085022 .269989 .28248597 .23298645 .26846314L.33198548 .66430667Z"/>
<path id="font_2_4" d="M.70799258 .3310089C.7220001 .3310089 .7409973 .3310089 .7409973 .35202027 .7409973 .37402345 .71899417 .37402345 .70399478 .37402345H.09399414C.07899475 .37402345 .056991579 .37402345 .056991579 .35202027 .056991579 .3310089 .07699585 .3310089 .08999634 .3310089H.70799258M.70399478 .12695313C.71899417 .12695313 .7409973 .12695313 .7409973 .14894104 .7409973 .1699524 .7220001 .1699524 .70799258 .1699524H.08999634C.07699585 .1699524 .056991579 .1699524 .056991579 .14894104 .056991579 .12695313 .07899475 .12695313 .09399414 .12695313H.70399478Z"/>
<path id="font_2_5" d="M.21398926 .20495606C.21398926 .19795227 .21398926 .18894959 .22799683 .18894959 .24198914 .18894959 .24198914 .19595337 .24198914 .21395874V.24397278C.24198914 .34005738 .2939911 .41311646 .36898805 .46514894 .3999939 .48716737 .4269867 .51820376 .4269867 .5691986 .4269867 .6301727 .38398744 .7050781 .23199463 .7050781 .12098694 .7050781 .056991579 .6381531 .056991579 .5722046 .056991579 .5372009 .08099365 .5232086 .10398865 .5232086 .12998963 .5232086 .1499939 .5422058 .1499939 .5691986 .1499939 .5852051 .14199829 .61621096 .09799194 .61621096 .13198853 .67308047 .19999695 .68006899 .22999573 .68006899 .33999635 .68006899 .34098817 .6141968 .34098817 .5742035 .34098817 .51719668 .32299806 .4981842 .30599977 .48117066 .21398926 .38710023 .21398926 .27400209 .21398926 .23297119V.20495606M.28199769 .053985597C.28199769 .083999637 .2579956 .10798645 .22799683 .10798645 .19799805 .10798645 .17399597 .083999637 .17399597 .053985597 .17399597 .023986817 .19799805 0 .22799683 0 .2579956 0 .28199769 .023986817 .28199769 .053985597Z"/>
<path id="font_3_1" d="M.5609894 .22944641C.5779877 .22944641 .59799197 .22944641 .59799197 .25045777 .59799197 .27246095 .57899478 .27246095 .5609894 .27246095H.12998963C.13999939 .3961029 .24798584 .50878909 .40299989 .50878909H.5609894C.5779877 .50878909 .59799197 .50878909 .59799197 .52978518 .59799197 .55178835 .57899478 .55178835 .5609894 .55178835H.3999939C.22399903 .55178835 .085998538 .41404725 .085998538 .25144959 .085998538 .08428955 .22599793-.050827028 .3999939-.050827028H.5609894C.5779877-.050827028 .59799197-.050827028 .59799197-.029815674 .59799197-.0078125 .57899478-.0078125 .5609894-.0078125H.40299989C.24699402-.0078125 .13999939 .10531616 .12998963 .22944641H.5609894Z"/>
<path id="font_2_7" d="M.22698975 .41786195C.14698792 .43788148 .12098694 .5019226 .12098694 .5459595 .12098694 .61302188 .1749878 .677063 .25898744 .677063 .3880005 .677063 .43998719 .58099368 .45399476 .47990418 .45700074 .46089173 .45799256 .45588685 .46998597 .45588685 .48399354 .45588685 .48399354 .46289063 .48399354 .48391725V.677063C.48399354 .69706729 .48399354 .7050781 .47200013 .7050781 .46499635 .7050781 .46398927 .70407107 .45700074 .69207766 .44400025 .67407229 .45399476 .68707278 .42099 .6350403 .4039917 .6550598 .35198976 .7050781 .2579956 .7050781 .14099121 .7050781 .056991579 .6140137 .056991579 .5119324 .056991579 .4338684 .10398865 .38583375 .10899353 .38082887 .1539917 .336792 .17199707 .3317871 .29100038 .30377198 .37199403 .28475953 .3809967 .28274537 .4139862 .24871826 .4149933 .24772644 .44898988 .21069336 .44898988 .15164185 .44898988 .08358765 .3999939 .008529663 .30899049 .008529663 .23199463 .008529663 .09298706 .04055786 .084991458 .20568848 .083999637 .22070313 .083999637 .22669983 .070999149 .22669983 .056991579 .22669983 .056991579 .21870423 .056991579 .19868469V.0055389406C.056991579-.014465332 .056991579-.022460938 .068984989-.022460938 .07598877-.022460938 .07699585-.021469117 .083999637-.009475708 .09700012 .008529663 .08699036-.004470825 .11999512 .047561647 .18199158-.012466431 .26098634-.022460938 .30999757-.022460938 .43199159-.022460938 .5130005 .07759094 .5130005 .18467713 .5130005 .24171448 .49198915 .28575135 .46798707 .31578065 .4249878 .3708191 .37998963 .38183595 .31498719 .3968506L.22698975 .41786195Z"/>
<path id="font_2_6" d="M.7409973 .33880616C.7409973 .54296877 .58599856 .7050781 .39898683 .7050781 .21199036 .7050781 .056991579 .54196169 .056991579 .33880616 .056991579 .13563538 .21299744-.022460938 .39898683-.022460938 .58499148-.022460938 .7409973 .13563538 .7409973 .33880616M.39898683 .007537842C.2979889 .007537842 .15899658 .09559631 .15899658 .35380555 .15899658 .5980072 .3019867 .677063 .39898683 .677063 .49598695 .677063 .6389923 .5980072 .6389923 .35380555 .6389923 .09559631 .5 .007537842 .39898683 .007537842Z"/>
<path id="font_2_1" d="M.34098817-.23803711C.34098817-.23303223 .33799745-.23002625 .33198548-.22303772 .20298767-.105026248 .1639862 .07498169 .1639862 .24996948 .1639862 .40498353 .19400025 .59298709 .33499146 .72698977 .33898927 .73098757 .34098817 .73399356 .34098817 .7389984 .34098817 .74598696 .33599855 .75 .32899476 .75 .31698609 .75 .22698975 .6779785 .17298889 .568985 .125 .47297669 .100997928 .36997987 .100997928 .25097657 .100997928 .17897034 .10998535 .064971927 .16499329-.053024293 .22399903-.17602539 .31698609-.24902344 .32899476-.24902344 .33599855-.24902344 .34098817-.24502564 .34098817-.23803711Z"/>
<path id="font_2_3" d="M.30499269 .35195924C.397995 .38697816 .44198609 .46006776 .44198609 .5290985 .44198609 .60606387 .35699464 .6660156 .25299073 .6660156 .14898682 .6660156 .070999149 .60705569 .070999149 .5310974 .070999149 .49809266 .09298706 .47909547 .12199402 .47909547 .15098572 .47909547 .17199707 .50009158 .17199707 .5290985 .17199707 .5640869 .147995 .57910159 .11399841 .57910159 .13999939 .6210327 .20098877 .64100649 .25 .64100649 .33299256 .64100649 .34899903 .5750885 .34899903 .52809146 .34899903 .49809266 .34298707 .45005799 .31799317 .41201783 .2869873 .36695863 .2519989 .36495973 .22299195 .36296083 .19799805 .36094667 .19599915 .36094667 .18798828 .36094667 .1789856 .35995484 .17098999 .35894776 .17098999 .34794618 .17098999 .33496095 .1789856 .33496095 .19599915 .33496095H.24299622C.32998658 .33496095 .36799623 .2646637 .36799623 .16937256 .36799623 .04145813 .2999878 .0055389406 .24899292 .0055389406 .22999573 .0055389406 .1329956 .010528564 .08799744 .0843811 .12399292 .07939148 .1519928 .10437012 .1519928 .13838196 .1519928 .17137146 .1269989 .19238281 .09799194 .19238281 .07299805 .19238281 .042999269 .17736817 .042999269 .13537598 .042999269 .046447755 .13598633-.022460938 .2519989-.022460938 .3769989-.022460938 .46998597 .06741333 .46998597 .16937256 .46998597 .25663758 .40098573 .33093263 .30499269 .35195924Z"/>
<path id="font_2_2" d="M.2979889 .25097657C.2979889 .3329773 .28599549 .4429779 .23399353 .5539856 .1749878 .6769867 .08198547 .75 .069992069 .75 .05999756 .75 .057998659 .74198916 .057998659 .7389984 .057998659 .73399356 .05999756 .73098757 .066986087 .72398379 .125 .6719818 .23498535 .5359802 .23498535 .25097657 .23498535 .10797119 .20899964-.091033939 .06399536-.22602844 .06199646-.22903443 .057998659-.23303223 .057998659-.23803711 .057998659-.24102783 .05999756-.24902344 .069992069-.24902344 .08198547-.24902344 .17199707-.17703247 .22599793-.06802368 .27398683 .02796936 .2979889 .13098145 .2979889 .25097657Z"/>
<path id="font_4_18" d="M.57299807 .17401123C.55599978 .13601685 .5419922 .11300659 .5269928 .0960083 .49198915 .056991579 .43699647 .038986207 .35398866 .038986207H.2869873C.21398926 .038986207 .20098877 .04499817 .20098877 .08000183V.5530853C.20098877 .62409976 .21499634 .6381073 .2939911 .6430969V.6621094H.011993408V.6430969C.085998538 .6371002 .09899902 .62309268 .09899902 .5530853V.10900879C.09899902 .038986207 .084991458 .023986817 .011993408 .018997193V0H.5499878L.59799197 .17399597 .57299807 .17401123Z"/>
<path id="font_4_11" d="M.25 .45996095C.11999512 .45996095 .0289917 .3639984 .0289917 .22608948 .0289917 .09118652 .12199402-.009765625 .24798584-.009765625 .37399293-.009765625 .46998597 .09617615 .46998597 .23408509 .46998597 .3650055 .37799073 .45996095 .25 .45996095M.23699951 .4319458C.32099916 .4319458 .37998963 .3360138 .37998963 .19911194 .37998963 .08618164 .33499146 .018234253 .2599945 .018234253 .22099304 .018234253 .18399048 .04220581 .16299439 .08218384 .1349945 .13415528 .11898804 .20410156 .11898804 .27505494 .11898804 .36999513 .1659851 .4319458 .23699951 .4319458Z"/>
<path id="font_4_4" d="M.397995 .15615845C.34999085 .08621216 .31399537 .06222534 .25698854 .06222534 .1659851 .06222534 .101989749 .14216614 .101989749 .25708009 .101989749 .3600006 .15699768 .43095399 .23799134 .43095399 .27398683 .43095399 .2869873 .41996766 .29699708 .3829956L.30299378 .3610077C.31098939 .33302308 .32899476 .31503297 .34999085 .31503297 .37599183 .31503297 .397995 .33403016 .397995 .3570099 .397995 .41296388 .32798768 .45996095 .24398804 .45996095 .19499207 .45996095 .14399719 .43995667 .102996829 .40397645 .052993776 .3600006 .024993897 .29205323 .024993897 .2131195 .024993897 .08320618 .10398865-.009765625 .21499634-.009765625 .2599945-.009765625 .2999878 .006225586 .33599855 .037231447 .36299134 .06123352 .38198854 .08821106 .4119873 .14717102L.397995 .15615845Z"/>
<path id="font_4_2" d="M.44198609 .066207889C.4249878 .052230836 .41299439 .047225954 .397995 .047225954 .375 .047225954 .36799623 .06121826 .36799623 .10517883V.30004884C.36799623 .35202027 .36299134 .3809967 .34799195 .40498353 .32598878 .4409485 .2829895 .45996095 .22399903 .45996095 .12998963 .45996095 .055999757 .41098023 .055999757 .34802247 .055999757 .32502748 .07598877 .3050537 .09899902 .3050537 .12298584 .3050537 .14399719 .32502748 .14399719 .34701539 .14399719 .35101319 .14299011 .35601808 .14199829 .3630066 .13999939 .37199403 .13899231 .37998963 .13899231 .3869934 .13899231 .41397096 .17098999 .43595887 .21099854 .43595887 .2599945 .43595887 .2869873 .40698243 .2869873 .35301209V.29205323C.1329956 .23010254 .115997318 .22210694 .07299805 .18412781 .050994874 .1641388 .036987306 .13017273 .036987306 .09719849 .036987306 .034225465 .08099365-.009765625 .14199829-.009765625 .18598938-.009765625 .22698975 .011230469 .28799439 .06323242 .29299928 .011230469 .31098939-.009765625 .35198976-.009765625 .38598634-.009765625 .40699769 .0022277833 .44198609 .040222169V.066207889M.2869873 .12322998C.2869873 .09222412 .28199769 .083221439 .26098634 .07122803 .23699951 .05722046 .20899964 .048233034 .18798828 .048233034 .15299988 .048233034 .125 .082229617 .125 .12522888V.12922669C.125 .18823242 .1659851 .2242279 .2869873 .26823426V.12322998Z"/>
<path id="font_4_8" d="M.018997193 .6230011H.024993897C.035995485 .6239929 .04798889 .625 .055999757 .625 .08799744 .625 .09799194 .61099246 .09799194 .56399539V.08699036C.09799194 .032989503 .083999637 .019989014 .020996094 .01499939V0H.25698854V.01499939C.19400025 .018997193 .18199158 .0289917 .18199158 .083999637V.68099978L.17799378 .68299868C.12599182 .66600039 .08799744 .6559906 .018997193 .6389923V.6230011Z"/>
<path id="font_4_13" d="M.0069885256 .3899536C.020996094 .3929596 .02999878 .39396668 .041992189 .39396668 .066986087 .39396668 .07598877 .3779602 .07598877 .33396913V.083984378C.07598877 .033996583 .068984989 .026992798 .004989624 .01499939V0H.24499512V.01499939C.1769867 .017990113 .1599884 .032989503 .1599884 .08998108V.31497193C.1599884 .3469696 .20298767 .3969574 .22999573 .3969574 .23599243 .3969574 .24499512 .3919525 .2559967 .381958 .27198792 .3679657 .2829895 .361969 .29599 .361969 .31999208 .361969 .33499146 .3789673 .33499146 .4069519 .33499146 .43995667 .31399537 .45996095 .27999879 .45996095 .23799134 .45996095 .20899964 .43695069 .1599884 .3659668V.45794679L.15499878 .45996095C.101989749 .43795777 .06599426 .42495729 .0069885256 .40596009V.3899536Z"/>
<path id="font_4_15" d="M.25498963 .4501953H.1539917V.5661926C.1539917 .57618716 .15299988 .5791931 .14698792 .5791931 .13999939 .5701904 .13398743 .56118777 .1269989 .55119326 .08898926 .4961853 .04598999 .44818116 .02999878 .44418336 .018997193 .43719483 .0129852299 .43019105 .0129852299 .42518617 .0129852299 .42218019 .01399231 .42018128 .016998291 .41818238H.069992069V.11721802C.069992069 .033233644 .099990848-.009765625 .15899658-.009765625 .20799256-.009765625 .24598694 .014221191 .2789917 .066223148L.2659912 .07722473C.24499512 .052230836 .22799683 .04222107 .20599365 .04222107 .16899109 .04222107 .1539917 .069229129 .1539917 .1322174V.41818238H.25498963V.4501953Z"/>
<path id="font_4_7" d="M.15699768 .34295655C.19898987 .38894654 .22898865 .40596009 .2679901 .40596009 .31799317 .40596009 .34298707 .36994935 .34298707 .29995729V.101989749C.34298707 .033996583 .33299256 .020996094 .2749939 .01499939V0H.4869995V.01499939C.43299867 .024993897 .4269867 .032989503 .4269867 .101989749V.30096437C.4269867 .40596009 .3849945 .45996095 .3039856 .45996095 .24499512 .45996095 .20298767 .43595887 .15699768 .3759613V.6799469L.1519928 .6829529C.117996219 .6709595 .09298706 .6629486 .036987306 .6469574L.009994507 .63894656V.6229553C.01399231 .62394717 .016998291 .62394717 .021987915 .62394717 .06498718 .62394717 .07299805 .61595156 .07299805 .5729523V.101989749C.07299805 .03199768 .066986087 .022994996 .008987427 .01499939V0H.22499085V.01499939C.16699219 .020996094 .15699768 .032989503 .15699768 .101989749V.34295655Z"/>
<path id="font_4_6" d="M.46998597 .38775636V.4267578H.3929901C.37298585 .4267578 .35798646 .4298706 .33799745 .43695069L.31599427 .4449463C.2889862 .45495606 .2619934 .45996095 .23599243 .45996095 .14299011 .45996095 .068984989 .38775636 .068984989 .29678346 .068984989 .23379517 .09599304 .19581604 .1619873 .16282654 .14299011 .14482117 .125 .1278534 .11898804 .12286377 .085998538 .09391785 .07299805 .07394409 .07299805 .053985597 .07299805 .03302002 .084991458 .02104187 .12599182 .0010375977 .054992677-.05101013 .027999878-.08406067 .027999878-.12109375 .027999878-.1741333 .10598755-.21813965 .20098877-.21813965 .27598573-.21813965 .35398866-.19213867 .4059906-.15013123 .44400025-.11909485 .46099855-.08705139 .46099855-.04901123 .46099855 .013046265 .4139862 .054977418 .33999635 .05796814L.21099854 .063964847C.1579895 .065963748 .1329956 .07495117 .1329956 .090911868 .1329956 .11088562 .1659851 .14582825 .19299317 .15382385 .20199585 .15281677 .20899964 .15182495 .21199036 .15182495 .23098755 .14982605 .24398804 .14881897 .25 .14881897 .2869873 .14881897 .32699586 .16381836 .35798646 .19081116 .3909912 .21881104 .4059906 .25379945 .4059906 .30377198 .4059906 .33276368 .40098573 .35575868 .3869934 .38775636H.46998597M.14698792-.001953125C.17999268-.008972168 .2599945-.014968872 .30899049-.014968872 .3999939-.014968872 .43299867-.02798462 .43299867-.06402588 .43299867-.12210083 .35699464-.16113281 .24398804-.16113281 .1559906-.16113281 .09799194-.1321106 .09799194-.08805847 .09799194-.06503296 .10499573-.052017213 .14698792-.001953125M.1519928 .33776856C.1519928 .39674378 .17999268 .4319458 .22599793 .4319458 .25698854 .4319458 .2829895 .41474916 .29899598 .38475038 .31698609 .34976197 .32899476 .30377198 .32899476 .26478578 .32899476 .20881653 .2999878 .17382813 .2539978 .17382813 .19400025 .17382813 .1519928 .23880005 .1519928 .33476258V.33776856Z"/>
<path id="font_4_10" d="M.015991211 .39794923C.021987915 .4009552 .03199768 .40194703 .042999269 .40194703 .070999149 .40194703 .07998657 .38694764 .07998657 .33796693V.08998108C.07998657 .032989503 .068984989 .018997193 .017990113 .01499939V0H.22999573V.01499939C.1789856 .018997193 .1639862 .0309906 .1639862 .066986087V.34796144C.21199036 .3929596 .23399353 .404953 .2669983 .404953 .31599427 .404953 .33999635 .3739624 .33999635 .30796815V.098983768C.33999635 .035995485 .32699586 .018997193 .2769928 .01499939V0H.4850006V.01499939C.43598939 .019989014 .42399598 .03199768 .42399598 .08097839V.30996705C.42399598 .40394593 .37998963 .45996095 .30599977 .45996095 .2599945 .45996095 .22898865 .4429474 .16099549 .37895204V.45794679L.1539917 .45996095C.10499573 .44195558 .070999149 .43095399 .015991211 .4149475V.39794923Z"/>
<path id="font_4_1" d="M.20199585 .29107667C.22799683 .28907777 .24499512 .28808595 .2709961 .28808595 .34899903 .28808595 .40299989 .29808045 .44599916 .32208253 .5059967 .3540802 .5419922 .41508485 .5419922 .48109437 .5419922 .52308657 .5279999 .5610962 .5009918 .59010317 .46099855 .63409426 .37399293 .6621094 .27999879 .6621094H.015991211V.6430969C.08999634 .6351013 .099990848 .6251068 .099990848 .5530853V.120010379C.099990848 .035995485 .09199524 .026000977 .015991211 .018997193V0H.29599V.018997193C.21699524 .021987915 .20199585 .035995485 .20199585 .10900879V.29107667M.20199585 .591095C.20199585 .618103 .20899964 .6251068 .23599243 .6251068 .37098695 .6251068 .43299867 .5780945 .43299867 .4750824 .43299867 .37808229 .37399293 .32807923 .25898744 .32807923 .23899842 .32807923 .22499085 .32907105 .20199585 .3310852V.591095Z"/>
<path id="font_4_16" d="M.47898866 .050186159H.47399903C.42799378 .050186159 .4169922 .061187746 .4169922 .10719299V.4501953H.25898744V.43318177C.32099916 .43019105 .33299256 .42018128 .33299256 .37019349V.13522339C.33299256 .10722351 .32798768 .09321594 .31399537 .082229617 .2869873 .06022644 .2559967 .048233034 .22599793 .048233034 .18699646 .048233034 .15499878 .082229617 .15499878 .1242218V.4501953H.008987427V.43618775C.056991579 .43318177 .070999149 .41818238 .070999149 .37219239V.120224C.070999149 .041229249 .11898804-.009765625 .19198609-.009765625 .22898865-.009765625 .2679901 .006225586 .29499818 .033233644L.33799745 .07621765V-.0067749025L.34199525-.0087890629C.3919983 .011199951 .42799378 .022201539 .47898866 .036209108V.050186159Z"/>
<path id="font_4_14" d="M.31498719 .31419374 .31098939 .4501953H.2999878L.2979889 .44818116C.2889862 .44119264 .28799439 .44018556 .28399659 .44018556 .27799989 .44018556 .2679901 .44218446 .25698854 .44718934 .23498535 .4549713 .21299744 .45898438 .18699646 .45898438 .10798645 .45898438 .050994874 .4079895 .050994874 .33602906 .050994874 .28007508 .08299255 .24009705 .16799927 .19212342L.22599793 .15913391C.26098634 .1391449 .27799989 .11515808 .27799989 .08418274 .27799989 .04020691 .24598694 .01222229 .19499207 .01222229 .16099549 .01222229 .12998963 .025222779 .11099243 .047210695 .08999634 .07218933 .08099365 .095184329 .067993167 .15214539H.051986696V-.003768921H.06498718C.07199097 .006225586 .07598877 .008224487 .08799744 .008224487 .09700012 .0079956059 .11099243 .005996704 .13398743 0 .1619873-.0057678224 .18899536-.009765625 .20698548-.009765625 .28399659-.009765625 .34799195 .048202516 .34799195 .11816406 .34799195 .1681366 .32398988 .20111084 .2639923 .23709107L.1559906 .3010559C.12799073 .31704713 .11299133 .34202577 .11299133 .36901856 .11299133 .40899659 .14399719 .4369812 .18998719 .4369812 .24699402 .4369812 .2769928 .40299989 .2999878 .31404115L.31498719 .31419374Z"/>
<path id="font_4_5" d="M.4079895 .16427613C.3600006 .08824158 .31698609 .05921936 .25299073 .05921936 .19599915 .05921936 .15299988 .08824158 .12399292 .14526367 .10598755 .18328858 .09899902 .2163086 .09700012 .27734376H.40499879C.39698792 .34222413 .3869934 .37112428 .3619995 .40301515 .33198548 .43894959 .28599549 .45996095 .23399353 .45996095 .18399048 .45996095 .13699341 .44195558 .09899902 .40800477 .051986696 .36714173 .024993897 .29634095 .024993897 .21430969 .024993897 .07623291 .09700012-.009765625 .21199036-.009765625 .30699159-.009765625 .38198854 .049224855 .42399598 .15727234L.4079895 .16427613M.09899902 .30934144C.10998535 .3870697 .14399719 .4239502 .20498657 .4239502 .2659912 .4239502 .2899933 .39604188 .30299378 .30934144H.09899902Z"/>
<path id="font_4_12" d="M.008987427 .39320375C.017990113 .39419557 .024993897 .39419557 .033996583 .39419557 .067993167 .39419557 .07499695 .38420106 .07499695 .33720399V-.13079834C.07499695-.1828003 .06399536-.19380188 .004989624-.19979859V-.21679688H.24699402V-.19880677C.17199707-.19779969 .15899658-.1867981 .15899658-.123794559V.033218385C.19400025 .00022888184 .21798706-.009765625 .2599945-.009765625 .37799073-.009765625 .46998597 .10217285 .46998597 .24707031 .46998597 .37097169 .3999939 .45996095 .30299378 .45996095 .24699402 .45996095 .20298767 .43495179 .15899658 .3809662V.45794679L.15299988 .45996095C.09899902 .43894959 .06399536 .4259491 .008987427 .4089508V.39320375M.15899658 .33399964C.15899658 .36398316 .21499634 .39994813 .26098634 .39994813 .33499146 .39994813 .38398744 .32400514 .38398744 .2080841 .38398744 .09716797 .33499146 .022232056 .2630005 .022232056 .21598816 .022232056 .15899658 .05819702 .15899658 .08818054V.33399964Z"/>
<path id="font_4_3" d="M.15299988 .680954 .147995 .6829529C.10598755 .6679535 .07899475 .6599579 .03199768 .6469574L.0029907227 .63894656V.6229553C.008987427 .62394717 .0129852299 .62394717 .019989014 .62394717 .05999756 .62394717 .068984989 .6149597 .068984989 .5729523V.05419922C.068984989 .023223877 .1539917-.009765625 .23399353-.009765625 .3659973-.009765625 .46798707 .10017395 .46798707 .24307251 .46798707 .36598207 .3919983 .45996095 .2919922 .45996095 .23098755 .45996095 .17298889 .4239502 .15299988 .37496949V.680954M.15299988 .32200624C.15299988 .36097718 .19999695 .3969574 .2519989 .3969574 .32998658 .3969574 .37998963 .3190155 .37998963 .19709778 .37998963 .08618164 .33198548 .022232056 .25 .022232056 .19799805 .022232056 .15299988 .045211793 .15299988 .07019043V.32200624Z"/>
<path id="font_4_9" d="M.018997193 .39794923C.03199768 .4009552 .039993287 .40194703 .050994874 .40194703 .07699585 .40194703 .085998538 .3859558 .085998538 .33796693V.084991458C.085998538 .0309906 .07199097 .015991211 .015991211 .01499939V0H.23799134V.01499939C.18499756 .016998291 .16999817 .02798462 .16999817 .066986087V.34895326C.16999817 .35095216 .17799378 .3609619 .18499756 .36795045 .20999146 .3909607 .25299073 .40795899 .28799439 .40795899 .33198548 .40795899 .35398866 .37295533 .35398866 .30296327V.08598328C.35398866 .02998352 .34298707 .018997193 .28599549 .01499939V0H.5099945V.01499939C.45298768 .015991211 .43798829 .032989503 .43798829 .09498596V.34695436C.46798707 .3899536 .5009918 .40795899 .5469971 .40795899 .60398867 .40795899 .621994 .38095094 .621994 .29795838V.08699036C.621994 .02998352 .6139984 .021987915 .55599978 .01499939V0H.7749939V.01499939L.7489929 .016998291C.71899417 .018997193 .70599368 .036987306 .70599368 .07598877V.28196717C.70599368 .39994813 .6669922 .45996095 .58999636 .45996095 .5319977 .45996095 .48098756 .43395997 .4269867 .3759613 .40899659 .43295289 .375 .45996095 .32099916 .45996095 .2769928 .45996095 .24899292 .44595338 .1659851 .38294984V.45794679L.15899658 .45996095C.10798645 .4409485 .07398987 .4299469 .018997193 .4149475V.39794923Z"/>
<path id="font_5_9" d="M.3929901 .69140627C.18399048 .69140627 .034988405 .54341128 .034988405 .3354187 .034988405 .12843323 .18199158-.018554688 .3889923-.018554688 .59599307-.018554688 .7429962 .12942505 .7429962 .33642579 .7429962 .5404053 .59399417 .69140627 .3929901 .69140627M.3919983 .6584015C.5019989 .6584015 .56599429 .53741458 .56599429 .329422 .56599429 .124435428 .5039978 .014434814 .3889923 .014434814 .27398683 .014434814 .21199036 .124435428 .21199036 .32641603 .21199036 .5424042 .2749939 .6584015 .3919983 .6584015Z"/>
<path id="font_5_7" d="M.21798706 .4609375H.0289917V.43693543C.07199097 .43093873 .08299255 .41793824 .08299255 .37794496V.083984378C.08299255 .04298401 .07299805 .03199768 .0289917 .023986817V0H.29499818V.023986817C.23399353 .02798462 .22200012 .040985109 .22200012 .10298157V.2919464C.22200012 .34394837 .25 .38693238 .2829895 .38693238 .29100038 .38693238 .2999878 .37994386 .31098939 .36393739 .32998658 .33694459 .34498597 .3279419 .37098695 .3279419 .4079895 .3279419 .43399049 .35594178 .43399049 .39494325 .43399049 .4396515 .3999939 .47265626 .35299684 .47265626 .30299378 .47265626 .2649994 .4456482 .21798706 .37864686V.4609375Z"/>
<path id="font_5_4" d="M.20799256 .4609375H.015991211V.43693543C.05999756 .42793275 .068984989 .41893006 .068984989 .37794496V.083984378C.068984989 .04298401 .06199646 .034988405 .015991211 .023986817V0H.25498963V.023986817C.21998596 .0289917 .20799256 .04298401 .20799256 .08097839V.4609375M.13798523 .69140627C.09498596 .69140627 .05999756 .6564026 .05999756 .61439517 .05999756 .569397 .09298706 .5363922 .13699341 .5363922 .18099976 .5363922 .21499634 .569397 .21499634 .6134033 .21499634 .6564026 .18099976 .69140627 .13798523 .69140627Z"/>
<path id="font_5_3" d="M.48199464 .39746095V.4504547H.35198976C.30799867 .4666443 .27999879 .47265626 .23999024 .47265626 .12098694 .47265626 .036987306 .40664674 .036987306 .3116455 .036987306 .27763368 .049987794 .24464417 .07299805 .21662903 .09498596 .19262696 .11399841 .17962647 .16099549 .15963745 .08198547 .13278198 .041992189 .095047 .041992189 .04322815 .041992189 .0022277833 .05999756-.01576233 .12399292-.038772584 .06098938-.04776001 .027999878-.07281494 .027999878-.11392212 .027999878-.1720581 .102996829-.20605469 .22898865-.20605469 .394989-.20605469 .48298646-.15400696 .48298646-.054779054 .48298646 .022232056 .42099 .068237308 .31900025 .068237308H.2539978C.17399597 .068237308 .1539917 .07518005 .1539917 .102996829 .1539917 .13278198 .18199158 .15463257 .22200012 .15463257L.2669983 .15364075C.31399537 .15364075 .33898927 .15963745 .37298585 .17962647 .41799928 .2059021 .44099427 .24681092 .44099427 .29968263 .44099427 .33958436 .42900086 .3695221 .40098573 .39746095H.48199464M.32398988-.051757814C.37799073-.051757814 .4039917-.06880188 .4039917-.101882938 .4039917-.147995 .34899903-.174057 .25-.174057 .1619873-.174057 .115997318-.15100098 .115997318-.106903079 .115997318-.08584595 .12298584-.0748291 .15098572-.051757814H.32398988M.23999024 .4416504C.2869873 .4416504 .30599977 .40364076 .30599977 .31063844 .30599977 .21763611 .2869873 .18164063 .23999024 .18164063 .19198609 .18164063 .17399597 .21763611 .17399597 .31063844 .17399597 .40464784 .19299317 .4416504 .23999024 .4416504Z"/>
<path id="font_5_6" d="M.21199036 .4609375H.020996094V.43693543C.06498718 .42993165 .07398987 .41993714 .07398987 .37794496V.083984378C.07398987 .041992189 .06599426 .032989503 .020996094 .023986817V0H.2619934V.023986817C.22499085 .0289917 .21299744 .04399109 .21299744 .08097839V.34794618C.21299744 .35194398 .21998596 .36193849 .22999573 .37094117 .2519989 .3936615 .27598573 .4056549 .29899598 .4056549 .33399964 .4056549 .35099793 .37867738 .35099793 .3227234V.080947879C.35099793 .04397583 .33799745 .02798462 .3039856 .023986817V0H.5389862V.023986817C.5 .026992798 .48999024 .038986207 .48999024 .080947879V.33171083C.48999024 .41764833 .43699647 .47265626 .35499574 .47265626 .29499818 .47265626 .24899292 .4446411 .21199036 .3856659V.4609375Z"/>
<path id="font_5_1" d="M.47299195 .06422424 .46299745 .054244996C.45999146 .051254274 .45700074 .050247194 .45199586 .050247194 .43798829 .050247194 .43099977 .05923462 .43099977 .07521057V.33581544C.43099977 .41967774 .35499574 .47265626 .23298645 .47265626 .11999512 .47265626 .04399109 .42167665 .04399109 .3467865 .04399109 .30586244 .067993167 .28089906 .10899353 .28089906 .14898682 .28089906 .1769867 .30485536 .1769867 .33880616 .1769867 .3527832 .17098999 .36576844 .15899658 .38174439 .1499939 .39172364 .14698792 .39772035 .14698792 .40370179 .14698792 .42466737 .1749878 .4406433 .20999146 .4406433 .2679901 .4406433 .2939911 .4136963 .2939911 .3527832V.27989198C.1749878 .24395752 .12599182 .22398377 .08898926 .19902039 .04598999 .16906739 .024993897 .13511658 .024993897 .0921936 .024993897 .031280519 .07199097-.013671875 .13598633-.013671875 .19299317-.013671875 .23899842 .0063171389 .2939911 .056243898 .30499269 .0053253176 .32699586-.013671875 .37599183-.013671875 .4189911-.013671875 .44999696 .002319336 .48799134 .043258668L.47299195 .06422424M.29299928 .10017395C.2659912 .069229129 .24598694 .057235719 .22200012 .057235719 .19198609 .057235719 .17098999 .084198 .17098999 .12414551 .17098999 .18205261 .21299744 .22398377 .29299928 .24494934V.10017395Z"/>
<path id="font_5_5" d="M.20599365 .67578127H.015991211V.6517792C.050994874 .6487732 .066986087 .6307831 .066986087 .5937958V.083969119C.066986087 .04698181 .049987794 .026992798 .015991211 .023986817V0H.25498963V.023986817C.22200012 .024993897 .20599365 .04399109 .20599365 .083969119V.67578127Z"/>
<path id="font_4_17" d="M.71099856 .42596437H.49499513V.40498353C.54499819 .39997865 .5589905 .3899994 .5589905 .36001588 .5589905 .31706239 .5319977 .2631073 .46798707 .17817688 .4119873 .24711609 .37998963 .29808045 .33599855 .3840027 .4039917 .41596986 .42900086 .43295289 .45700074 .46392823 .47799684 .48690797 .4909973 .5218811 .4909973 .55485537 .4909973 .62579348 .43499757 .67578127 .35598756 .67578127 .269989 .67578127 .20199585 .60780337 .20199585 .5218811 .20199585 .48391725 .20999146 .4519348 .23699951 .3769989L.19898987 .35502626C.09298706 .29408265 .041992189 .22314453 .041992189 .13920594 .041992189 .044296266 .10699463-.0126953129 .21299744-.0126953129 .2939911-.0126953129 .35398866 .012298584 .42900086 .07826233 .49198915 .013290405 .54100039-.0126953129 .598999-.0126953129 .6629944-.0126953129 .7200012 .029296875 .75 .1002655L.7350006 .11125183C.7029877 .07128906 .68099978 .058303834 .644989 .058303834 .58898928 .058303834 .5369873 .089263919 .4909973 .15020752 .5349884 .20916748 .55999758 .24612427 .59098818 .30007936L.61698916 .34603883C.6409912 .38700868 .6609955 .39898683 .71099856 .40498353V.42596437M.32099916 .4159851C.29100038 .4789276 .2809906 .5168915 .2809906 .5618439 .2809906 .60980227 .31199647 .6437683 .35798646 .6437683 .4039917 .6437683 .43798829 .60780337 .43798829 .55885317 .43798829 .50289919 .40299989 .45994569 .32099916 .4159851M.2519989 .34329225C.31199647 .22929383 .34700013 .17430115 .4039917 .10429382 .34498597 .057296754 .30499269 .03929138 .2630005 .03929138 .19299317 .03929138 .13398743 .103302 .13398743 .18029785 .13398743 .24429322 .16499329 .28729249 .2519989 .34329225Z"/>
<path id="font_5_8" d="M.30499269 .4609375H.21099854V.6299286H.18598938C.125 .54393008 .084991458 .49893189 .019989014 .44392396V.41693116H.07199097V.09324646C.07199097 .028274537 .114990238-.01171875 .18399048-.01171875 .25099183-.01171875 .29100038 .01828003 .33198548 .100234989L.30699159 .11122131C.2869873 .07325745 .2709961 .059280397 .25 .059280397 .22200012 .059280397 .21099854 .07626343 .21099854 .1162262V.41693116H.30499269V.4609375Z"/>
<path id="font_5_2" d="M.4019928 .12524414C.3619995 .076293949 .33099366 .05831909 .28799439 .05831909 .24899292 .05831909 .21998596 .076293949 .19898987 .11126709 .18099976 .143219 .17298889 .17619324 .16899109 .24511719H.42099C.4149933 .3289795 .3999939 .37583924 .36799623 .4137268 .33499146 .45265199 .2889862 .47265626 .23399353 .47265626 .10899353 .47265626 .024993897 .37384034 .024993897 .22813416 .024993897 .08229065 .10699463-.013671875 .23098755-.013671875 .31199647-.013671875 .36099244 .018325806 .42599488 .11126709L.4019928 .12524414M.1639862 .2821045C.16699219 .40176393 .18499756 .4416504 .23399353 .4416504 .2619934 .4416504 .2809906 .4256897 .2889862 .39479066 .2939911 .37583924 .29599 .34791566 .2979889 .29707337V.2821045H.1639862Z"/>
<path id="font_6_2" d="M.44599916 .44433595H.37098695L.2919922 .23617554C.2709961 .18112183 .23999024 .10005188 .23199463 .053024293H.23098755C.22499085 .08905029 .19898987 .15811157 .18899536 .18513489L.09199524 .44433595H.01399231L.18598938 0H.27398683L.44599916 .44433595Z"/>
<path id="font_7_1" d="M.31298829 .66430667C.31399537 .66630557 .31698609 .67930606 .31698609 .68029788 .31698609 .68530276 .31298829 .6943054 .30099488 .6943054 .2809906 .6943054 .19799805 .6863098 .17298889 .6843109 .16499329 .68330386 .15098572 .682312 .15098572 .66130068 .15098572 .64730837 .16499329 .64730837 .1769867 .64730837 .22499085 .64730837 .22499085 .64030459 .22499085 .63230898 .22499085 .62532046 .22299195 .61932376 .22099304 .61032107L.07998657 .04425049C.07499695 .026229859 .07499695 .024230957 .07499695 .022232056 .07499695 .007232666 .08699036-.009765625 .10899353-.009765625 .13598633-.009765625 .14898682 .010223389 .15499878 .03224182 .15699768 .036239625 .19999695 .21234131 .20399475 .22636414 .2749939 .21936035 .33198548 .19633484 .33198548 .14430237 .33198548 .13929749 .33198548 .1342926 .32998658 .124298099 .32598878 .10928345 .32598878 .104278568 .32598878 .09327698 .32598878 .022232056 .38398744-.009765625 .43199159-.009765625 .5289917-.009765625 .5589905 .14230347 .5589905 .14331055 .5589905 .15631104 .54599 .15631104 .54299929 .15631104 .5289917 .15631104 .5279999 .15130615 .522995 .1322937 .5109863 .089263919 .48399354 .018234253 .43499757 .018234253 .4079895 .018234253 .3999939 .04324341 .3999939 .07026672 .3999939 .087265018 .3999939 .089263919 .4059906 .11528015 .40699769 .11828613 .41099549 .13529969 .41099549 .14630127 .41099549 .23536682 .29100038 .24937439 .24899292 .25238038 .27799989 .27038575 .31498719 .30340577 .33198548 .31840516 .3829956 .3664093 .43299867 .4133911 .4889984 .4133911 .5009918 .4133911 .5139923 .4104004 .5219879 .40040589 .47898866 .3934021 .46998597 .35940553 .46998597 .34440614 .46998597 .32240296 .4869995 .30740357 .5099945 .30740357 .5369873 .30740357 .5669861 .32940675 .5669861 .37139894 .5669861 .4044037 .54299929 .44140626 .48999024 .44140626 .43299867 .44140626 .3809967 .40040589 .32998658 .3534088 .28799439 .31340028 .25498963 .2823944 .21398926 .26538087L.31298829 .66430667Z"/>
<path id="font_6_1" d="M.43499757 .44433595H.35699464V.15426636C.35699464 .07925415 .30099488 .04425049 .23699951 .04425049 .1659851 .04425049 .15899658 .070251468 .15899658 .11326599V.44433595H.08099365V.10926819C.08099365 .037246705 .10398865-.0107421879 .18699646-.0107421879 .23999024-.0107421879 .31098939 .0052490236 .3600006 .04824829V.00024414063H.43499757V.44433595Z"/>
<path id="font_8_1" d="M.25 .69433596 .115997318 .55851748 .13398743 .5405121 .25 .642334 .36499024 .5405121 .3829956 .55851748 .25 .69433596Z"/>
<path id="font_9_1" d="M.30599977 .57366946C.32398988 .52171328 .34599305 .44674684 .3909912 .32382203 .45399476 .1539154 .48199464 .09194946 .54299929-.0030212403 .5569916-.024017334 .55799868-.025009156 .5669861-.025009156 .58099368-.025009156 .60198977-.013015747 .61299136-.0050201418 .6269989 .007980347 .6279907 .008987427 .6389923 .05796814 .69898989 .32081605 .7749939 .5946655 .79499819 .64064028 .79599 .64263918 .81599429 .6806183 .93899539 .6826172 .95899966 .683609 .9779968 .7366028 .9779968 .75860598 .9779968 .7746124 .9720001 .7746124 .95799258 .7746124 .8580017 .7746124 .8129883 .732605 .8009949 .7196045 .772995 .683609 .7489929 .61065676 .7029877 .4437561 .66799929 .31582643 .6359863 .18589783 .6049957 .05697632 .5499878 .1399231 .5189972 .21888733 .47099305 .34780885 .41799928 .48973084 .38598634 .59365847 .35899354 .683609 .35299684 .7036133 .35198976 .7046051 .34298707 .7046051 .34098817 .7046051 .32099916 .7046051 .2919922 .6806183 .28199769 .6716156 .2809906 .6626282 .27999879 .6516266 .2519989 .38578797 .1579895 .12294006 .1309967 .07496643 .12298584 .05996704 .11099243 .041992189 .09098816 .041992189 .08099365 .041992189 .041992189 .04698181 .015991211 .07096863 .010986328 .07496643 .008987427 .07496643 .0079956059 .07496643-.008010864 .07496643-.029006958 .024978638-.029006958 .0009918213-.029006958-.030014039 .03199768-.05001831 .05999756-.05001831 .12399292-.05001831 .1749878 .09095764 .19099427 .13693238 .2559967 .31782533 .2869873 .46673585 .30599977 .57366946Z"/>
<path id="font_9_2" d="M.61099246 .5616455C.61099246 .5796509 .61099246 .59765627 .59098818 .59765627 .57099917 .59765627 .57099917 .5796509 .57099917 .5616455V.1995697C.57099917 .049545289 .4079895 .017532349 .33299256 .017532349 .28799439 .017532349 .22499085 .026535035 .17199707 .060546876 .09498596 .109558109 .09498596 .17356873 .09498596 .20057678V.5616455C.09498596 .5796509 .09498596 .59765627 .07499695 .59765627 .054992677 .59765627 .054992677 .5796509 .054992677 .5616455V.1955719C.054992677 .043533327 .20799256-.022460938 .33299256-.022460938 .46299745-.022460938 .61099246 .047531129 .61099246 .19456482V.5616455Z"/>
<path id="font_9_3" d="M.2829895 .6169281C.2829895 .6569519 .30899049 .72099307 .41799928 .7279968 .4229889 .72898867 .4269867 .73298647 .4269867 .7389984 .4269867 .75 .4189911 .75 .4079895 .75 .30799867 .75 .21699524 .6989746 .21598816 .62493899V.3968048C.21598816 .3577881 .21598816 .32577516 .17599488 .29275514 .14099121 .2637329 .102996829 .261734 .08099365 .2607422 .07598877 .2597351 .07199097 .2557373 .07199097 .2497406 .07199097 .23973084 .07798767 .23973084 .08799744 .23873902 .1539917 .23474121 .20199585 .19876099 .21299744 .14978028 .21598816 .13879395 .21598816 .13679505 .21598816 .10081482V-.097076419C.21598816-.13905335 .21598816-.17103577 .2639923-.2090149 .30299378-.23901367 .36898805-.25 .4079895-.25 .4189911-.25 .4269867-.25 .4269867-.23901367 .4269867-.2290039 .42099-.2290039 .41099549-.22801209 .34799195-.22401428 .29899598-.19203186 .28599549-.14105225 .2829895-.13206482 .2829895-.13006592 .2829895-.09408569V.11579895C.2829895 .16177368 .2749939 .17877198 .24299622 .2107544 .22200012 .23173523 .19299317 .24172974 .16499329 .2497406 .24699402 .2727356 .2829895 .31877137 .2829895 .37680055V.6169281Z"/>
<path id="font_9_4" d="M.21598816-.11706543C.21598816-.15704346 .18998719-.2210083 .08099365-.22801209 .07598877-.2290039 .07199097-.23300171 .07199097-.23901367 .07199097-.25 .08299255-.25 .09199524-.25 .18899536-.25 .28199769-.20101929 .2829895-.12506104V.10282898C.2829895 .14179993 .2829895 .17378235 .32299806 .20677185 .35798646 .23576355 .3959961 .23776245 .41799928 .23875427 .4229889 .23976135 .4269867 .24375916 .4269867 .24975586 .4269867 .25976563 .42099 .25976563 .41099549 .26075746 .34498597 .26475526 .29699708 .30078126 .28599549 .34980775 .2829895 .36080934 .2829895 .36280824 .2829895 .39883424V.5969238C.2829895 .63894656 .2829895 .6709595 .23498535 .7089844 .19499207 .73999026 .12599182 .75 .09199524 .75 .08299255 .75 .07199097 .75 .07199097 .7389984 .07199097 .72898867 .07798767 .72898867 .08799744 .72798159 .15098572 .72398379 .19999695 .6919708 .21299744 .64094546 .21598816 .63194277 .21598816 .62994387 .21598816 .59391787V.38381959C.21598816 .33779908 .22399903 .32078553 .2559967 .28877259 .2769928 .26776124 .30599977 .25775147 .33399964 .24975586 .2519989 .22676087 .21598816 .18078614 .21598816 .12281799V-.11706543Z"/>
</defs>
<path transform="matrix(1,0,0,-1,-3.509,-3.0859986)" d="M179.48674-10.95406C179.48674-6.88177 182.78192-3.58658 186.85422-3.58658H246.05547C250.12027-3.58658 253.42293-6.88177 253.42293-10.95406V-89.69478C253.42293-93.76707 250.12027-97.06226 246.05547-97.06226H186.85422C182.78192-97.06226 179.48674-93.76707 179.48674-89.69478Z" fill="#eeffdb"/>
<path transform="matrix(1,0,0,-1,-3.509,-3.0859986)" stroke-width=".74721" stroke-linecap="butt" stroke-miterlimit="10" stroke-linejoin="miter" fill="none" stroke="#000000" stroke-opacity="0" d="M179.48674-10.95406C179.48674-6.88177 182.78192-3.58658 186.85422-3.58658H246.05547C250.12027-3.58658 253.42293-6.88177 253.42293-10.95406V-89.69478C253.42293-93.76707 250.12027-97.06226 246.05547-97.06226H186.85422C182.78192-97.06226 179.48674-93.76707 179.48674-89.69478Z"/>
<path transform="matrix(1,0,0,-1,-3.509,-3.0859986)" d="M79.14421-10.23672C79.14421-6.56047 82.1181-3.58658 85.79437-3.58658H144.78643C148.46268-3.58658 151.43656-6.56047 151.43656-10.23672V-90.41212C151.43656-94.08836 148.46268-97.06226 144.78643-97.06226H85.79437C82.1181-97.06226 79.14421-94.08836 79.14421-90.41212Z" fill="#f1eded"/>
<path transform="matrix(1,0,0,-1,-3.509,-3.0859986)" stroke-width=".74721" stroke-linecap="butt" stroke-miterlimit="10" stroke-linejoin="miter" fill="none" stroke="#000000" stroke-opacity="0" d="M79.14421-10.23672C79.14421-6.56047 82.1181-3.58658 85.79437-3.58658H144.78643C148.46268-3.58658 151.43656-6.56047 151.43656-10.23672V-90.41212C151.43656-94.08836 148.46268-97.06226 144.78643-97.06226H85.79437C82.1181-97.06226 79.14421-94.08836 79.14421-90.41212Z"/>
<path transform="matrix(1,0,0,-1,-3.509,-3.0859986)" stroke-width=".74721" stroke-linecap="butt" stroke-miterlimit="10" stroke-linejoin="miter" fill="none" stroke="#9b9b9b" d="M79.02466-12.53067C79.02466-7.52438 83.08202-3.45956 88.0883-3.45956H245.06168C250.06797-3.45956 254.1253-7.52438 254.1253-12.53067V-87.94632C254.1253-92.9526 250.06797-97.00996 245.06168-97.00996H88.0883C83.08202-97.00996 79.02466-92.9526 79.02466-87.94632Z"/>
<path transform="matrix(1,0,0,-1,-3.509,-3.0859986)" stroke-width=".74721" stroke-linecap="butt" stroke-miterlimit="10" stroke-linejoin="miter" fill="none" stroke="#000000" d="M153.02063-48.00809H176.1766"/>
<path transform="matrix(1,0,0,-1,-3.509,-3.0859986)" d="M174.41321-49.9284 178.41823-48.00809 174.41321-46.08775Z"/>
<path transform="matrix(1,0,0,-1,-3.509,-3.0859986)" stroke-width=".0797" stroke-linecap="butt" stroke-miterlimit="10" stroke-linejoin="miter" fill="none" stroke="#000000" stroke-opacity="0" d="M174.41321-49.9284 178.41823-48.00809 174.41321-46.08775Z"/>
<path transform="matrix(1,0,0,-1,-3.509,-3.0859986)" stroke-width=".74721" stroke-linecap="butt" stroke-miterlimit="10" stroke-linejoin="miter" fill="none" stroke="#d5d5d5" d="M114.2032-63.42297 83.59758-54.32947"/>
<path transform="matrix(1,0,0,-1,-3.509,-3.0859986)" stroke-width=".74721" stroke-linecap="butt" stroke-miterlimit="10" stroke-linejoin="miter" fill="none" stroke="#d5d5d5" d="M147.26714-74.48912 114.2032-63.42297"/>
<path transform="matrix(1,0,0,-1,-3.509,-3.0859986)" stroke-width=".74721" stroke-linecap="butt" stroke-miterlimit="10" stroke-linejoin="miter" fill="none" stroke="#d5d5d5" d="M114.2032-63.42297 105.03497-50.72792"/>
<path transform="matrix(1,0,0,-1,-3.509,-3.0859986)" stroke-width=".74721" stroke-linecap="butt" stroke-miterlimit="10" stroke-linejoin="miter" fill="none" stroke="#d5d5d5" d="M130.93317-59.36563 114.2032-63.42297"/>
<path transform="matrix(1,0,0,-1,-3.509,-3.0859986)" stroke-width=".74721" stroke-linecap="butt" stroke-miterlimit="10" stroke-linejoin="miter" fill="none" stroke="#d5d5d5" d="M127.04024-91.77203 114.2032-63.42297"/>
<path transform="matrix(1,0,0,-1,-3.509,-3.0859986)" stroke-width=".74721" stroke-linecap="butt" stroke-miterlimit="10" stroke-linejoin="miter" fill="none" stroke="#d5d5d5" d="M127.04024-91.77203 95.94144-76.64854"/>
<path transform="matrix(1,0,0,-1,-3.509,-3.0859986)" stroke-width=".74721" stroke-linecap="butt" stroke-miterlimit="10" stroke-linejoin="miter" fill="none" stroke="#d5d5d5" d="M147.26714-74.48912 127.04024-91.77203"/>
<path transform="matrix(1,0,0,-1,-3.509,-3.0859986)" stroke-width=".74721" stroke-linecap="butt" stroke-miterlimit="10" stroke-linejoin="miter" fill="none" stroke="#d5d5d5" d="M105.03497-50.72792 83.59758-54.32947"/>
<path transform="matrix(1,0,0,-1,-3.509,-3.0859986)" stroke-width=".74721" stroke-linecap="butt" stroke-miterlimit="10" stroke-linejoin="miter" fill="none" stroke="#d5d5d5" d="M130.93317-59.36563 105.03497-50.72792"/>
<path transform="matrix(1,0,0,-1,-3.509,-3.0859986)" stroke-width=".74721" stroke-linecap="butt" stroke-miterlimit="10" stroke-linejoin="miter" fill="none" stroke="#d5d5d5" d="M95.94144-76.64854 83.59758-54.32947"/>
<path transform="matrix(1,0,0,-1,-3.509,-3.0859986)" stroke-width=".74721" stroke-linecap="butt" stroke-miterlimit="10" stroke-linejoin="miter" fill="none" stroke="#d5d5d5" d="M114.2032-63.42297 95.94144-76.64854"/>
<path transform="matrix(1,0,0,-1,-3.509,-3.0859986)" stroke-width=".74721" stroke-linecap="butt" stroke-miterlimit="10" stroke-linejoin="miter" fill="none" stroke="#d5d5d5" d="M147.26714-74.48912 130.93317-59.36563"/>
<path transform="matrix(1,0,0,-1,-3.509,-3.0859986)" stroke-width=".74721" stroke-linecap="butt" stroke-miterlimit="10" stroke-linejoin="miter" fill="none" stroke="#8b572a" d="M113.95662-63.15398 120.6516-28.95428"/>
<path transform="matrix(1,0,0,-1,-3.509,-3.0859986)" stroke-width=".74721" stroke-linecap="butt" stroke-miterlimit="10" stroke-linejoin="miter" fill="none" stroke="#8b572a" d="M121.43906-32.58269C120.9533-30.66803 120.78207-28.97478 120.93555-27.48975 120.5181-28.92316 119.7214-30.42705 118.54994-32.0175"/>
<path transform="matrix(1,0,0,-1,-3.509,-3.0859986)" stroke-width=".74721" stroke-linecap="butt" stroke-miterlimit="10" stroke-linejoin="miter" fill="none" stroke="#4a4a4a" d="M144.34557-71.28358 132.71154-60.37436"/>
<path transform="matrix(1,0,0,-1,-3.509,-3.0859986)" stroke-width=".74721" stroke-linecap="butt" stroke-miterlimit="10" stroke-linejoin="miter" fill="none" stroke="#4a4a4a" d="M134.67705-60.86476C133.422-60.46634 132.40139-59.95995 131.6206-59.3507 132.27873-60.09074 132.84958-61.07675 133.32776-62.30367"/>
<path transform="matrix(1,0,0,-1,-3.509,-3.0859986)" stroke-width=".74721" stroke-linecap="butt" stroke-miterlimit="10" stroke-linejoin="miter" fill="none" stroke="#4a4a4a" d="M128.54958-59.39552 118.70139-62.19756"/>
<path transform="matrix(1,0,0,-1,-3.509,-3.0859986)" stroke-width=".74721" stroke-linecap="butt" stroke-miterlimit="10" stroke-linejoin="miter" fill="none" stroke="#4a4a4a" d="M120.1378-60.76698C119.15033-61.63805 118.19093-62.25258 117.26675-62.6085 118.23994-62.42506 119.37915-62.44298 120.67717-62.66434"/>
<path transform="matrix(1,0,0,-1,-3.509,-3.0859986)" stroke-width=".74721" stroke-linecap="butt" stroke-miterlimit="10" stroke-linejoin="miter" fill="none" stroke="#4a4a4a" d="M127.12065-60.83356C128.10813-59.9625 129.06752-59.34795 129.9917-58.99203 129.01851-59.17548 127.8793-59.15755 126.58128-58.93619"/>
<path transform="matrix(1,0,0,-1,-3.509,-3.0859986)" stroke-width=".74721" stroke-linecap="butt" stroke-miterlimit="10" stroke-linejoin="miter" fill="none" stroke="#4a4a4a" d="M115.93672-67.57745 126.09874-89.45569"/>
<path transform="matrix(1,0,0,-1,-3.509,-3.0859986)" stroke-width=".74721" stroke-linecap="butt" stroke-miterlimit="10" stroke-linejoin="miter" fill="none" stroke="#4a4a4a" d="M124.45663-88.26955C125.47206-89.10788 126.22968-89.95883 126.72641-90.8156 126.39232-89.8833 126.23103-88.75543 126.24568-87.43874"/>
<path transform="matrix(1,0,0,-1,-3.509,-3.0859986)" stroke-width=".74721" stroke-linecap="butt" stroke-miterlimit="10" stroke-linejoin="miter" fill="none" stroke="#4a4a4a" d="M117.57886-68.77106C116.56343-67.93272 115.8058-67.08177 115.30908-66.225 115.64317-67.1573 115.80446-68.28517 115.7898-69.60187"/>
<path transform="matrix(1,0,0,-1,-3.509,-3.0859986)" stroke-width=".74721" stroke-linecap="butt" stroke-miterlimit="10" stroke-linejoin="miter" fill="none" stroke="#4a4a4a" d="M129.49108-90.09082 145.16748-76.59624"/>
<path transform="matrix(1,0,0,-1,-3.509,-3.0859986)" stroke-width=".74721" stroke-linecap="butt" stroke-miterlimit="10" stroke-linejoin="miter" fill="none" stroke="#4a4a4a" d="M144.4715-78.50212C145.00165-77.29681 145.6141-76.3361 146.30324-75.62488 145.49718-76.2002 144.45587-76.66249 143.18495-77.00693"/>
<path transform="matrix(1,0,0,-1,-3.509,-3.0859986)" stroke-width=".74721" stroke-linecap="butt" stroke-miterlimit="10" stroke-linejoin="miter" fill="none" stroke="#4a4a4a" d="M124.09624-90.85297 98.16814-77.43312"/>
<path transform="matrix(1,0,0,-1,-3.509,-3.0859986)" stroke-width=".74721" stroke-linecap="butt" stroke-miterlimit="10" stroke-linejoin="miter" fill="none" stroke="#4a4a4a" d="M122.06567-90.90831C123.38174-90.94995 124.50166-91.1593 125.4188-91.53293 124.58405-91.00008 123.76633-90.20676 122.97217-89.15643"/>
<path transform="matrix(1,0,0,-1,-3.509,-3.0859986)" stroke-width=".74721" stroke-linecap="butt" stroke-miterlimit="10" stroke-linejoin="miter" fill="none" stroke="#4a4a4a" d="M94.66373-74.3322 84.7931-57.18379"/>
<path transform="matrix(1,0,0,-1,-3.509,-3.0859986)" stroke-width=".74721" stroke-linecap="butt" stroke-miterlimit="10" stroke-linejoin="miter" fill="none" stroke="#4a4a4a" d="M92.92001-73.2868C94.00478-74.03325 94.83383-74.81474 95.40346-75.62488 94.98923-74.72533 94.73006-73.61586 94.6297-72.30293"/>
<path transform="matrix(1,0,0,-1,-3.509,-3.0859986)" stroke-width=".74721" stroke-linecap="butt" stroke-miterlimit="10" stroke-linejoin="miter" fill="none" stroke="#4a4a4a" d="M89.68732-53.6196 103.56297-50.67561"/>
<path transform="matrix(1,0,0,-1,-3.509,-3.0859986)" stroke-width=".74721" stroke-linecap="butt" stroke-miterlimit="10" stroke-linejoin="miter" fill="none" stroke="#4a4a4a" d="M91.21964-52.2834C90.17534-53.0855 89.17647-53.63353 88.23027-53.92595 89.21368-53.80893 90.34904-53.9041 91.62907-54.21301"/>
<path transform="matrix(1,0,0,-1,-3.509,-3.0859986)" stroke-width=".74721" stroke-linecap="butt" stroke-miterlimit="10" stroke-linejoin="miter" fill="none" stroke="#4a4a4a" d="M107.5979-51.84126 125.74754-57.54245"/>
<path transform="matrix(1,0,0,-1,-3.509,-3.0859986)" stroke-width=".74721" stroke-linecap="butt" stroke-miterlimit="10" stroke-linejoin="miter" fill="none" stroke="#4a4a4a" d="M109.58131-51.43056C108.27773-51.61626 107.1385-51.60297 106.17072-51.39293 107.08478-51.77402 108.02695-52.41461 108.99017-53.31241"/>
<path transform="matrix(1,0,0,-1,-3.509,-3.0859986)" stroke-width=".74721" stroke-linecap="butt" stroke-miterlimit="10" stroke-linejoin="miter" fill="none" stroke="#4a4a4a" d="M110.53441-66.04567 98.2279-75.43808"/>
<path transform="matrix(1,0,0,-1,-3.509,-3.0859986)" stroke-width=".74721" stroke-linecap="butt" stroke-miterlimit="10" stroke-linejoin="miter" fill="none" stroke="#4a4a4a" d="M99.0366-73.58438C98.43692-74.75667 97.76938-75.67993 97.03984-76.34967 97.87816-75.82243 98.94473-75.42178 100.23358-75.15222"/>
<path transform="matrix(1,0,0,-1,-3.509,-3.0859986)" stroke-width=".74721" stroke-linecap="butt" stroke-miterlimit="10" stroke-linejoin="miter" fill="none" stroke="#4a4a4a" d="M109.72571-67.89935C110.32541-66.72707 110.99295-65.8038 111.72247-65.13406 110.88417-65.6613 109.8176-66.06195 108.52875-66.33151"/>
<path transform="matrix(1,0,0,-1,-3.509,-3.0859986)" stroke-width=".74721" stroke-linecap="butt" stroke-miterlimit="10" stroke-linejoin="miter" fill="none" stroke="#4a4a4a" d="M107.04495-54.06046 111.50577-60.30713"/>
<path transform="matrix(1,0,0,-1,-3.509,-3.0859986)" stroke-width=".74721" stroke-linecap="butt" stroke-miterlimit="10" stroke-linejoin="miter" fill="none" stroke="#4a4a4a" d="M109.6721-59.43399C110.82472-60.0706 111.7263-60.76717 112.37254-61.5176 111.87222-60.66293 111.50565-59.58421 111.27718-58.28743"/>
<path transform="matrix(1,0,0,-1,-3.509,-3.0859986)" stroke-width=".74721" stroke-linecap="butt" stroke-miterlimit="10" stroke-linejoin="miter" fill="none" stroke="#4a4a4a" d="M108.87117-54.9261C107.71854-54.28949 106.81696-53.59294 106.17072-52.84251 106.67104-53.69716 107.03761-54.7759 107.26608-56.07268"/>
<path transform="matrix(1,0,0,-1,-3.509,-3.0859986)" stroke-width=".74721" stroke-linecap="butt" stroke-miterlimit="10" stroke-linejoin="miter" fill="none" stroke="#4a4a4a" d="M87.69228-55.47269 110.2953-62.86258"/>
<path transform="matrix(1,0,0,-1,-3.509,-3.0859986)" stroke-width=".74721" stroke-linecap="butt" stroke-miterlimit="10" stroke-linejoin="miter" fill="none" stroke="#4a4a4a" d="M108.31247-63.24895C109.61813-63.07826 110.75716-63.10464 111.72247-63.32584 110.81285-62.93423 109.87808-62.28284 108.92526-61.374"/>
<path transform="matrix(1,0,0,-1,-3.509,-3.0859986)" stroke-width=".74721" stroke-linecap="butt" stroke-miterlimit="10" stroke-linejoin="miter" fill="none" stroke="#4a4a4a" d="M89.68259-55.0863C88.37694-55.25699 87.23792-55.2306 86.27258-55.00941 87.18222-55.40102 88.11699-56.05243 89.0698-56.96126"/>
<path transform="matrix(1,0,0,-1,-3.509,-3.0859986)" stroke-width=".74721" stroke-linecap="butt" stroke-miterlimit="10" stroke-linejoin="miter" fill="none" stroke="#4a4a4a" d="M119.32904-64.90244 141.62572-72.60614"/>
<path transform="matrix(1,0,0,-1,-3.509,-3.0859986)" stroke-width=".74721" stroke-linecap="butt" stroke-miterlimit="10" stroke-linejoin="miter" fill="none" stroke="#4a4a4a" d="M139.62967-72.95782C140.93802-72.80905 142.07646-72.85452 143.03795-73.09184 142.135-72.68504 141.21126-72.01808 140.2738-71.0934"/>
<path transform="matrix(1,0,0,-1,-3.509,-3.0859986)" stroke-width=".74721" stroke-linecap="butt" stroke-miterlimit="10" stroke-linejoin="miter" fill="none" stroke="#4a4a4a" d="M121.32512-64.55078C120.01675-64.69957 118.87831-64.6541 117.91682-64.41676 118.81978-64.82356 119.74352-65.49052 120.68097-66.41522"/>
<path transform="matrix(1,0,0,-1,-3.509,-3.0859986)" stroke-width=".74721" stroke-linecap="butt" stroke-miterlimit="10" stroke-linejoin="miter" fill="none" stroke="#d5d5d5" d="M216.57813-63.96097 185.9725-54.86745"/>
<path transform="matrix(1,0,0,-1,-3.509,-3.0859986)" stroke-width=".74721" stroke-linecap="butt" stroke-miterlimit="10" stroke-linejoin="miter" fill="none" stroke="#d5d5d5" d="M249.64206-75.0271 216.57813-63.96097"/>
<path transform="matrix(1,0,0,-1,-3.509,-3.0859986)" stroke-width=".74721" stroke-linecap="butt" stroke-miterlimit="10" stroke-linejoin="miter" fill="none" stroke="#d5d5d5" d="M216.57813-63.96097 207.40988-51.2659"/>
<path transform="matrix(1,0,0,-1,-3.509,-3.0859986)" stroke-width=".74721" stroke-linecap="butt" stroke-miterlimit="10" stroke-linejoin="miter" fill="none" stroke="#d5d5d5" d="M233.31558-59.9111 216.57813-63.96097"/>
<path transform="matrix(1,0,0,-1,-3.509,-3.0859986)" stroke-width=".74721" stroke-linecap="butt" stroke-miterlimit="10" stroke-linejoin="miter" fill="none" stroke="#d5d5d5" d="M229.41515-92.31001 216.57813-63.96097"/>
<path transform="matrix(1,0,0,-1,-3.509,-3.0859986)" stroke-width=".74721" stroke-linecap="butt" stroke-miterlimit="10" stroke-linejoin="miter" fill="none" stroke="#d5d5d5" d="M229.41515-92.31001 198.31636-77.19402"/>
<path transform="matrix(1,0,0,-1,-3.509,-3.0859986)" stroke-width=".74721" stroke-linecap="butt" stroke-miterlimit="10" stroke-linejoin="miter" fill="none" stroke="#d5d5d5" d="M249.64206-75.0271 229.41515-92.31001"/>
<path transform="matrix(1,0,0,-1,-3.509,-3.0859986)" stroke-width=".74721" stroke-linecap="butt" stroke-miterlimit="10" stroke-linejoin="miter" fill="none" stroke="#d5d5d5" d="M207.40988-51.2659 185.9725-54.86745"/>
<path transform="matrix(1,0,0,-1,-3.509,-3.0859986)" stroke-width=".74721" stroke-linecap="butt" stroke-miterlimit="10" stroke-linejoin="miter" fill="none" stroke="#d5d5d5" d="M233.31558-59.9111 207.40988-51.2659"/>
<path transform="matrix(1,0,0,-1,-3.509,-3.0859986)" stroke-width=".74721" stroke-linecap="butt" stroke-miterlimit="10" stroke-linejoin="miter" fill="none" stroke="#d5d5d5" d="M198.31636-77.19402 185.9725-54.86745"/>
<path transform="matrix(1,0,0,-1,-3.509,-3.0859986)" stroke-width=".74721" stroke-linecap="butt" stroke-miterlimit="10" stroke-linejoin="miter" fill="none" stroke="#d5d5d5" d="M216.57813-63.96097 198.31636-77.19402"/>
<path transform="matrix(1,0,0,-1,-3.509,-3.0859986)" stroke-width=".74721" stroke-linecap="butt" stroke-miterlimit="10" stroke-linejoin="miter" fill="none" stroke="#d5d5d5" d="M249.64206-75.0271 233.31558-59.9111"/>
<path transform="matrix(1,0,0,-1,-3.509,-3.0859986)" stroke-width=".74721" stroke-linecap="butt" stroke-miterlimit="10" stroke-linejoin="miter" fill="none" stroke="#4a90e2" d="M216.33902-63.96097 244.37424-41.33553"/>
<path transform="matrix(1,0,0,-1,-3.509,-3.0859986)" stroke-width=".74721" stroke-linecap="butt" stroke-miterlimit="10" stroke-linejoin="miter" fill="none" stroke="#4a90e2" d="M242.64292-44.61804C243.50217-42.8394 244.45989-41.43257 245.53243-40.39404 244.29097-41.2233 242.71376-41.86267 240.79387-42.32732"/>
<path transform="matrix(1,0,0,-1,-3.509,-3.0859986)" stroke-width=".74721" stroke-linecap="butt" stroke-miterlimit="10" stroke-linejoin="miter" fill="none" stroke="#4a4a4a" d="M246.81015-71.82907 235.17612-60.91235"/>
<path transform="matrix(1,0,0,-1,-3.509,-3.0859986)" stroke-width=".74721" stroke-linecap="butt" stroke-miterlimit="10" stroke-linejoin="miter" fill="none" stroke="#4a4a4a" d="M237.14165-61.41022C235.88658-61.0118 234.86597-60.5054 234.08519-59.89615 234.74332-60.6362 235.31417-61.62221 235.79235-62.84912"/>
<path transform="matrix(1,0,0,-1,-3.509,-3.0859986)" stroke-width=".74721" stroke-linecap="butt" stroke-miterlimit="10" stroke-linejoin="miter" fill="none" stroke="#4a4a4a" d="M231.01416-59.94098 221.16597-62.74301"/>
<path transform="matrix(1,0,0,-1,-3.509,-3.0859986)" stroke-width=".74721" stroke-linecap="butt" stroke-miterlimit="10" stroke-linejoin="miter" fill="none" stroke="#4a4a4a" d="M222.59491-61.30498C221.60744-62.17604 220.64804-62.79057 219.72388-63.1465 220.69705-62.96306 221.83626-62.98099 223.13428-63.20233"/>
<path transform="matrix(1,0,0,-1,-3.509,-3.0859986)" stroke-width=".74721" stroke-linecap="butt" stroke-miterlimit="10" stroke-linejoin="miter" fill="none" stroke="#4a4a4a" d="M229.57776-61.37154C230.56523-60.50047 231.52463-59.88594 232.4488-59.53001 231.47562-59.71346 230.33641-59.69553 229.03839-59.47418"/>
<path transform="matrix(1,0,0,-1,-3.509,-3.0859986)" stroke-width=".74721" stroke-linecap="butt" stroke-miterlimit="10" stroke-linejoin="miter" fill="none" stroke="#4a4a4a" d="M218.40129-68.1229 228.55587-90.00114"/>
<path transform="matrix(1,0,0,-1,-3.509,-3.0859986)" stroke-width=".74721" stroke-linecap="butt" stroke-miterlimit="10" stroke-linejoin="miter" fill="none" stroke="#4a4a4a" d="M226.9212-88.80754C227.93663-89.64587 228.69426-90.49683 229.19098-91.35359 228.85689-90.4213 228.6956-89.29343 228.71027-87.97673"/>
<path transform="matrix(1,0,0,-1,-3.509,-3.0859986)" stroke-width=".74721" stroke-linecap="butt" stroke-miterlimit="10" stroke-linejoin="miter" fill="none" stroke="#4a4a4a" d="M220.03597-69.30904C219.02054-68.4707 218.26291-67.61977 217.76619-66.76299 218.10028-67.69528 218.26157-68.82315 218.2469-70.13985"/>
<path transform="matrix(1,0,0,-1,-3.509,-3.0859986)" stroke-width=".74721" stroke-linecap="butt" stroke-miterlimit="10" stroke-linejoin="miter" fill="none" stroke="#4a4a4a" d="M231.94818-90.62878 247.63207-77.14171"/>
<path transform="matrix(1,0,0,-1,-3.509,-3.0859986)" stroke-width=".74721" stroke-linecap="butt" stroke-miterlimit="10" stroke-linejoin="miter" fill="none" stroke="#4a4a4a" d="M246.93608-79.04759C247.46623-77.84227 248.07869-76.88156 248.76782-76.17033 247.96176-76.74567 246.92046-77.20795 245.64954-77.55238"/>
<path transform="matrix(1,0,0,-1,-3.509,-3.0859986)" stroke-width=".74721" stroke-linecap="butt" stroke-miterlimit="10" stroke-linejoin="miter" fill="none" stroke="#4a4a4a" d="M226.55335-91.39096 200.6327-77.97858"/>
<path transform="matrix(1,0,0,-1,-3.509,-3.0859986)" stroke-width=".74721" stroke-linecap="butt" stroke-miterlimit="10" stroke-linejoin="miter" fill="none" stroke="#4a4a4a" d="M224.53025-91.45375C225.84632-91.49539 226.96623-91.70474 227.88336-92.07837 227.04863-91.54552 226.2309-90.7522 225.43674-89.70187"/>
<path transform="matrix(1,0,0,-1,-3.509,-3.0859986)" stroke-width=".74721" stroke-linecap="butt" stroke-miterlimit="10" stroke-linejoin="miter" fill="none" stroke="#4a4a4a" d="M197.12084-74.8702 187.25769-57.72179"/>
<path transform="matrix(1,0,0,-1,-3.509,-3.0859986)" stroke-width=".74721" stroke-linecap="butt" stroke-miterlimit="10" stroke-linejoin="miter" fill="none" stroke="#4a4a4a" d="M195.3846-73.83226C196.46936-74.5787 197.29842-75.36021 197.86804-76.17033 197.45381-75.2708 197.19464-74.16133 197.09429-72.84839"/>
<path transform="matrix(1,0,0,-1,-3.509,-3.0859986)" stroke-width=".74721" stroke-linecap="butt" stroke-miterlimit="10" stroke-linejoin="miter" fill="none" stroke="#4a4a4a" d="M192.1519-54.1576 206.02754-51.2136"/>
<path transform="matrix(1,0,0,-1,-3.509,-3.0859986)" stroke-width=".74721" stroke-linecap="butt" stroke-miterlimit="10" stroke-linejoin="miter" fill="none" stroke="#4a4a4a" d="M193.67675-52.82886C192.63246-53.63097 191.63358-54.17899 190.68738-54.47142 191.67079-54.35439 192.80615-54.44955 194.08618-54.75847"/>
<path transform="matrix(1,0,0,-1,-3.509,-3.0859986)" stroke-width=".74721" stroke-linecap="butt" stroke-miterlimit="10" stroke-linejoin="miter" fill="none" stroke="#4a4a4a" d="M210.06249-52.3867 228.21215-58.0879"/>
<path transform="matrix(1,0,0,-1,-3.509,-3.0859986)" stroke-width=".74721" stroke-linecap="butt" stroke-miterlimit="10" stroke-linejoin="miter" fill="none" stroke="#4a4a4a" d="M212.0459-51.97601C210.74231-52.16171 209.60309-52.14844 208.6353-51.93839 209.54936-52.31949 210.49155-52.96007 211.45476-53.85786"/>
<path transform="matrix(1,0,0,-1,-3.509,-3.0859986)" stroke-width=".74721" stroke-linecap="butt" stroke-miterlimit="10" stroke-linejoin="miter" fill="none" stroke="#4a4a4a" d="M212.99152-66.58365 200.68502-75.98354"/>
<path transform="matrix(1,0,0,-1,-3.509,-3.0859986)" stroke-width=".74721" stroke-linecap="butt" stroke-miterlimit="10" stroke-linejoin="miter" fill="none" stroke="#4a4a4a" d="M201.49372-74.12236C200.89403-75.29465 200.22649-76.21791 199.49695-76.88765 200.33527-76.36041 201.40184-75.95976 202.69069-75.6902"/>
<path transform="matrix(1,0,0,-1,-3.509,-3.0859986)" stroke-width=".74721" stroke-linecap="butt" stroke-miterlimit="10" stroke-linejoin="miter" fill="none" stroke="#4a4a4a" d="M212.18282-68.44482C212.78252-67.27254 213.45006-66.34927 214.17958-65.67953 213.34128-66.20677 212.2747-66.60742 210.98586-66.87698"/>
<path transform="matrix(1,0,0,-1,-3.509,-3.0859986)" stroke-width=".74721" stroke-linecap="butt" stroke-miterlimit="10" stroke-linejoin="miter" fill="none" stroke="#4a4a4a" d="M209.50208-54.59846 213.96289-60.84511"/>
<path transform="matrix(1,0,0,-1,-3.509,-3.0859986)" stroke-width=".74721" stroke-linecap="butt" stroke-miterlimit="10" stroke-linejoin="miter" fill="none" stroke="#4a4a4a" d="M212.13669-59.97946C213.2893-60.61607 214.1909-61.31262 214.83713-62.06306 214.3368-61.2084 213.97025-60.12967 213.74178-58.8329"/>
<path transform="matrix(1,0,0,-1,-3.509,-3.0859986)" stroke-width=".74721" stroke-linecap="butt" stroke-miterlimit="10" stroke-linejoin="miter" fill="none" stroke="#4a4a4a" d="M211.33576-55.47157C210.18312-54.83496 209.28154-54.1384 208.6353-53.38797 209.13564-54.24263 209.5022-55.32137 209.73067-56.61813"/>
<path transform="matrix(1,0,0,-1,-3.509,-3.0859986)" stroke-width=".74721" stroke-linecap="butt" stroke-miterlimit="10" stroke-linejoin="miter" fill="none" stroke="#4a4a4a" d="M190.15686-56.01814 212.75989-63.40802"/>
<path transform="matrix(1,0,0,-1,-3.509,-3.0859986)" stroke-width=".74721" stroke-linecap="butt" stroke-miterlimit="10" stroke-linejoin="miter" fill="none" stroke="#4a4a4a" d="M210.76959-63.79439C212.07524-63.6237 213.21427-63.6501 214.17958-63.87129 213.26996-63.47969 212.33519-62.82828 211.38237-61.91945"/>
<path transform="matrix(1,0,0,-1,-3.509,-3.0859986)" stroke-width=".74721" stroke-linecap="butt" stroke-miterlimit="10" stroke-linejoin="miter" fill="none" stroke="#4a4a4a" d="M192.1397-55.63177C190.83405-55.80246 189.69503-55.77606 188.72969-55.55487 189.63933-55.94649 190.5741-56.59789 191.5269-57.50671"/>
<path transform="matrix(1,0,0,-1,-3.509,-3.0859986)" stroke-width=".74721" stroke-linecap="butt" stroke-miterlimit="10" stroke-linejoin="miter" fill="none" stroke="#4a4a4a" d="M221.79364-65.4479 244.0903-73.14415"/>
<path transform="matrix(1,0,0,-1,-3.509,-3.0859986)" stroke-width=".74721" stroke-linecap="butt" stroke-miterlimit="10" stroke-linejoin="miter" fill="none" stroke="#4a4a4a" d="M242.09426-73.50328C243.4026-73.35449 244.54105-73.39996 245.50254-73.6373 244.59958-73.23048 243.67584-72.56354 242.73839-71.63884"/>
<path transform="matrix(1,0,0,-1,-3.509,-3.0859986)" stroke-width=".74721" stroke-linecap="butt" stroke-miterlimit="10" stroke-linejoin="miter" fill="none" stroke="#4a4a4a" d="M223.7897-65.08876C222.48134-65.23755 221.3429-65.19208 220.38141-64.95474 221.28437-65.36156 222.2081-66.0285 223.14557-66.9532"/>
<path transform="matrix(1,0,0,-1,-3.509,-3.0859986)" d="M33.59445-42.5684 54.48636-49.53986 74.98975-62.3171 75.44554-81.48297H6.53058L6.37367-50.87735 16.30406-45.47504Z" fill="#ededed"/>
<path transform="matrix(1,0,0,-1,-3.509,-3.0859986)" stroke-width=".74721" stroke-linecap="butt" stroke-miterlimit="10" stroke-linejoin="miter" fill="none" stroke="#c2c2c2" d="M33.59445-42.5684 54.48636-49.53986 74.98975-62.3171 75.44554-81.48297H6.53058L6.37367-50.87735 16.30406-45.47504Z"/>
<path transform="matrix(1,0,0,-1,-3.509,-3.0859986)" d="M33.59445-42.5684 54.48636-49.53986 67.65216-61.73428 51.34064-75.67717 26.25687-63.47528 16.30406-45.47504Z" fill="#dce1e1"/>
<path transform="matrix(1,0,0,-1,-3.509,-3.0859986)" stroke-width=".74721" stroke-linecap="butt" stroke-miterlimit="10" stroke-linejoin="miter" fill="none" stroke="#c2c2c2" d="M33.59445-42.5684 54.48636-49.53986 67.65216-61.73428 51.34064-75.67717 26.25687-63.47528 16.30406-45.47504Z"/>
<path transform="matrix(1,0,0,-1,-3.509,-3.0859986)" stroke-width=".74721" stroke-linecap="butt" stroke-miterlimit="10" stroke-linejoin="miter" fill="none" stroke="#c2c2c2" d="M40.99179-52.81262 16.30406-45.47504"/>
<path transform="matrix(1,0,0,-1,-3.509,-3.0859986)" stroke-width=".74721" stroke-linecap="butt" stroke-miterlimit="10" stroke-linejoin="miter" fill="none" stroke="#c2c2c2" d="M67.65216-61.73428 40.99179-52.81262"/>
<path transform="matrix(1,0,0,-1,-3.509,-3.0859986)" stroke-width=".74721" stroke-linecap="butt" stroke-miterlimit="10" stroke-linejoin="miter" fill="none" stroke="#c2c2c2" d="M40.99179-52.81262 33.59445-42.5684"/>
<path transform="matrix(1,0,0,-1,-3.509,-3.0859986)" stroke-width=".74721" stroke-linecap="butt" stroke-miterlimit="10" stroke-linejoin="miter" fill="none" stroke="#c2c2c2" d="M54.48636-49.53986 40.99179-52.81262"/>
<path transform="matrix(1,0,0,-1,-3.509,-3.0859986)" stroke-width=".74721" stroke-linecap="butt" stroke-miterlimit="10" stroke-linejoin="miter" fill="none" stroke="#c2c2c2" d="M51.34064-75.67717 40.99179-52.81262"/>
<path transform="matrix(1,0,0,-1,-3.509,-3.0859986)" stroke-width=".74721" stroke-linecap="butt" stroke-miterlimit="10" stroke-linejoin="miter" fill="none" stroke="#c2c2c2" d="M51.34064-75.67717 26.25687-63.47528"/>
<path transform="matrix(1,0,0,-1,-3.509,-3.0859986)" stroke-width=".74721" stroke-linecap="butt" stroke-miterlimit="10" stroke-linejoin="miter" fill="none" stroke="#c2c2c2" d="M26.25687-63.47528 31.49478-80.90016"/>
<path transform="matrix(1,0,0,-1,-3.509,-3.0859986)" stroke-width=".74721" stroke-linecap="butt" stroke-miterlimit="10" stroke-linejoin="miter" fill="none" stroke="#c2c2c2" d="M51.34064-75.67717 45.04166-80.84785"/>
<path transform="matrix(1,0,0,-1,-3.509,-3.0859986)" stroke-width=".74721" stroke-linecap="butt" stroke-miterlimit="10" stroke-linejoin="miter" fill="none" stroke="#c2c2c2" d="M26.25687-63.47528 7.00133-74.22758"/>
<path transform="matrix(1,0,0,-1,-3.509,-3.0859986)" stroke-width=".74721" stroke-linecap="butt" stroke-miterlimit="10" stroke-linejoin="miter" fill="none" stroke="#c2c2c2" d="M16.30406-45.47504 6.37367-50.87735"/>
<path transform="matrix(1,0,0,-1,-3.509,-3.0859986)" stroke-width=".74721" stroke-linecap="butt" stroke-miterlimit="10" stroke-linejoin="miter" fill="none" stroke="#c2c2c2" d="M67.65216-61.73428 51.34064-75.67717"/>
<path transform="matrix(1,0,0,-1,-3.509,-3.0859986)" stroke-width=".74721" stroke-linecap="butt" stroke-miterlimit="10" stroke-linejoin="miter" fill="none" stroke="#c2c2c2" d="M61.70439-81.19904 51.34064-75.67717"/>
<path transform="matrix(1,0,0,-1,-3.509,-3.0859986)" stroke-width=".74721" stroke-linecap="butt" stroke-miterlimit="10" stroke-linejoin="miter" fill="none" stroke="#c2c2c2" d="M75.44554-81.48297 67.65216-61.73428"/>
<path transform="matrix(1,0,0,-1,-3.509,-3.0859986)" stroke-width=".74721" stroke-linecap="butt" stroke-miterlimit="10" stroke-linejoin="miter" fill="none" stroke="#c2c2c2" d="M33.59445-42.5684 16.30406-45.47504"/>
<path transform="matrix(1,0,0,-1,-3.509,-3.0859986)" stroke-width=".74721" stroke-linecap="butt" stroke-miterlimit="10" stroke-linejoin="miter" fill="none" stroke="#c2c2c2" d="M54.48636-49.53986 33.59445-42.5684"/>
<path transform="matrix(1,0,0,-1,-3.509,-3.0859986)" stroke-width=".74721" stroke-linecap="butt" stroke-miterlimit="10" stroke-linejoin="miter" fill="none" stroke="#c2c2c2" d="M74.98975-62.3171 67.65216-61.73428"/>
<path transform="matrix(1,0,0,-1,-3.509,-3.0859986)" stroke-width=".74721" stroke-linecap="butt" stroke-miterlimit="10" stroke-linejoin="miter" fill="none" stroke="#c2c2c2" d="M74.98975-62.3171 54.48636-49.53986"/>
<path transform="matrix(1,0,0,-1,-3.509,-3.0859986)" stroke-width=".74721" stroke-linecap="butt" stroke-miterlimit="10" stroke-linejoin="miter" fill="none" stroke="#c2c2c2" d="M26.25687-63.47528 7.39734-58.83511"/>
<path transform="matrix(1,0,0,-1,-3.509,-3.0859986)" stroke-width=".74721" stroke-linecap="butt" stroke-miterlimit="10" stroke-linejoin="miter" fill="none" stroke="#c2c2c2" d="M26.25687-63.47528 16.30406-45.47504"/>
<path transform="matrix(1,0,0,-1,-3.509,-3.0859986)" stroke-width=".74721" stroke-linecap="butt" stroke-miterlimit="10" stroke-linejoin="miter" fill="none" stroke="#c2c2c2" d="M40.99179-52.81262 26.25687-63.47528"/>
<path transform="matrix(1,0,0,-1,-3.509,-3.0859986)" stroke-width=".74721" stroke-linecap="butt" stroke-miterlimit="10" stroke-linejoin="miter" fill="none" stroke="#c2c2c2" d="M67.65216-61.73428 54.48636-49.53986"/>
<path transform="matrix(1,0,0,-1,-3.509,-3.0859986)" stroke-width=".74721" stroke-linecap="butt" stroke-miterlimit="10" stroke-linejoin="miter" fill="none" stroke="#8b572a" d="M40.99179-52.81262 46.32687-25.50966"/>
<path transform="matrix(1,0,0,-1,-3.509,-3.0859986)" stroke-width=".74721" stroke-linecap="butt" stroke-miterlimit="10" stroke-linejoin="miter" fill="none" stroke="#8b572a" d="M47.12178-29.13806C46.63602-27.2234 46.4648-25.53017 46.61827-24.04514 46.20082-25.47855 45.40413-26.98242 44.23267-28.57289"/>
<path transform="matrix(1,0,0,-1,-3.509,-3.0859986)" stroke-width=".74721" stroke-linecap="butt" stroke-dasharray="4.48325,4.48325" stroke-miterlimit="10" stroke-linejoin="miter" fill="none" stroke="#9b9b9b" d="M6.69498-19.67397H75.44554V-81.48297H6.69498Z"/>
<path transform="matrix(1,0,0,-1,-3.509,-3.0859986)" stroke-width=".74721" stroke-linecap="butt" stroke-miterlimit="10" stroke-linejoin="miter" fill="none" stroke="#4a90e2" d="M40.99179-52.81262 63.37067-34.73767"/>
<path transform="matrix(1,0,0,-1,-3.509,-3.0859986)" stroke-width=".74721" stroke-linecap="butt" stroke-miterlimit="10" stroke-linejoin="miter" fill="none" stroke="#4a90e2" d="M61.6468-38.02766C62.50606-36.24902 63.46378-34.8422 64.53632-33.80367 63.29486-34.63292 61.71765-35.2723 59.79776-35.73694"/>
<path transform="matrix(1,0,0,-1,-3.509,-3.0859986)" d="M39.36288-52.81262C39.36288-51.91597 40.09515-51.18372 40.99179-51.18372 41.88097-51.18372 42.61324-51.91597 42.61324-52.81262 42.61324-53.70927 41.88097-54.43407 40.99179-54.43407 40.09515-54.43407 39.36288-53.70927 39.36288-52.81262Z"/>
<path transform="matrix(1,0,0,-1,-3.509,-3.0859986)" stroke-width=".74721" stroke-linecap="butt" stroke-miterlimit="10" stroke-linejoin="miter" fill="none" stroke="#000000" d="M39.36288-52.81262C39.36288-51.91597 40.09515-51.18372 40.99179-51.18372 41.88097-51.18372 42.61324-51.91597 42.61324-52.81262 42.61324-53.70927 41.88097-54.43407 40.99179-54.43407 40.09515-54.43407 39.36288-53.70927 39.36288-52.81262Z"/>
<path transform="matrix(1,0,0,-1,-3.509,-3.0859986)" stroke-width=".74721" stroke-linecap="butt" stroke-miterlimit="10" stroke-linejoin="miter" fill="none" stroke="#000000" d="M144.05414-49.65941"/>
<use data-text="R" xlink:href="#font_0_1" transform="matrix(8.9664,0,0,-8.9664,149.547,53.920003)"/>
<use data-text="k" xlink:href="#font_1_1" transform="matrix(5.9776,0,0,-5.9776,155.517,54.983)"/>
<use data-text="=" xlink:href="#font_2_4" transform="matrix(8.9664,0,0,-8.9664,162.65,53.920003)"/>
<use data-text="?" xlink:href="#font_2_5" transform="matrix(8.9664,0,0,-8.9664,169.81415,53.920003)"/>
<use data-text="&#x2208;" xlink:href="#font_3_1" transform="matrix(8.9664,0,0,-8.9664,145.47499,65.875)"/>
<use data-text="S" xlink:href="#font_2_7" transform="matrix(8.9664,0,0,-8.9664,154.17899,65.875)"/>
<use data-text="O" xlink:href="#font_2_6" transform="matrix(8.9664,0,0,-8.9664,159.2988,65.875)"/>
<use data-text="(" xlink:href="#font_2_1" transform="matrix(8.9664,0,0,-8.9664,166.46295,65.875)"/>
<use data-text="3" xlink:href="#font_2_3" transform="matrix(8.9664,0,0,-8.9664,170.04952,65.875)"/>
<use data-text=")" xlink:href="#font_2_2" transform="matrix(8.9664,0,0,-8.9664,174.65825,65.875)"/>
<path transform="matrix(1,0,0,-1,-3.509,-3.0859986)" stroke-width=".74721" stroke-linecap="butt" stroke-miterlimit="10" stroke-linejoin="miter" fill="none" stroke="#000000" d="M170.16905-104.60158"/>
<use data-text="L" xlink:href="#font_4_18" transform="matrix(7.9701,0,0,-7.9701,107.44399,103.36901)"/>
<use data-text="o" xlink:href="#font_4_11" transform="matrix(7.9701,0,0,-7.9701,112.31372,103.36901)"/>
<use data-text="c" xlink:href="#font_4_4" transform="matrix(7.9701,0,0,-7.9701,116.29877,103.36901)"/>
<use data-text="a" xlink:href="#font_4_2" transform="matrix(7.9701,0,0,-7.9701,119.837497,103.36901)"/>
<use data-text="l" xlink:href="#font_4_8" transform="matrix(7.9701,0,0,-7.9701,123.37622,103.36901)"/>
<use data-text="o" xlink:href="#font_4_11" transform="matrix(7.9701,0,0,-7.9701,127.584438,103.36901)"/>
<use data-text="r" xlink:href="#font_4_13" transform="matrix(7.9701,0,0,-7.9701,131.56949,103.36901)"/>
<use data-text="t" xlink:href="#font_4_15" transform="matrix(7.9701,0,0,-7.9701,134.22351,103.36901)"/>
<use data-text="h" xlink:href="#font_4_7" transform="matrix(7.9701,0,0,-7.9701,136.43921,103.36901)"/>
<use data-text="o" xlink:href="#font_4_11" transform="matrix(7.9701,0,0,-7.9701,140.42426,103.36901)"/>
<use data-text="g" xlink:href="#font_4_6" transform="matrix(7.9701,0,0,-7.9701,144.4093,103.36901)"/>
<use data-text="o" xlink:href="#font_4_11" transform="matrix(7.9701,0,0,-7.9701,148.39435,103.36901)"/>
<use data-text="n" xlink:href="#font_4_10" transform="matrix(7.9701,0,0,-7.9701,152.3794,103.36901)"/>
<use data-text="a" xlink:href="#font_4_2" transform="matrix(7.9701,0,0,-7.9701,156.36444,103.36901)"/>
<use data-text="l" xlink:href="#font_4_8" transform="matrix(7.9701,0,0,-7.9701,159.90317,103.36901)"/>
<use data-text="P" xlink:href="#font_4_1" transform="matrix(7.9701,0,0,-7.9701,164.11136,103.36901)"/>
<use data-text="r" xlink:href="#font_4_13" transform="matrix(7.9701,0,0,-7.9701,168.54276,103.36901)"/>
<use data-text="o" xlink:href="#font_4_11" transform="matrix(7.9701,0,0,-7.9701,171.19678,103.36901)"/>
<use data-text="c" xlink:href="#font_4_4" transform="matrix(7.9701,0,0,-7.9701,175.18183,103.36901)"/>
<use data-text="r" xlink:href="#font_4_13" transform="matrix(7.9701,0,0,-7.9701,178.72055,103.36901)"/>
<use data-text="u" xlink:href="#font_4_16" transform="matrix(7.9701,0,0,-7.9701,181.3746,103.36901)"/>
<use data-text="s" xlink:href="#font_4_14" transform="matrix(7.9701,0,0,-7.9701,185.35965,103.36901)"/>
<use data-text="t" xlink:href="#font_4_15" transform="matrix(7.9701,0,0,-7.9701,188.46002,103.36901)"/>
<use data-text="e" xlink:href="#font_4_5" transform="matrix(7.9701,0,0,-7.9701,190.67569,103.36901)"/>
<use data-text="s" xlink:href="#font_4_14" transform="matrix(7.9701,0,0,-7.9701,194.21442,103.36901)"/>
<use data-text="p" xlink:href="#font_4_12" transform="matrix(7.9701,0,0,-7.9701,199.30731,103.36901)"/>
<use data-text="r" xlink:href="#font_4_13" transform="matrix(7.9701,0,0,-7.9701,203.29236,103.36901)"/>
<use data-text="o" xlink:href="#font_4_11" transform="matrix(7.9701,0,0,-7.9701,205.94641,103.36901)"/>
<use data-text="b" xlink:href="#font_4_3" transform="matrix(7.9701,0,0,-7.9701,209.93146,103.36901)"/>
<use data-text="l" xlink:href="#font_4_8" transform="matrix(7.9701,0,0,-7.9701,213.9165,103.36901)"/>
<use data-text="e" xlink:href="#font_4_5" transform="matrix(7.9701,0,0,-7.9701,216.13217,103.36901)"/>
<use data-text="m" xlink:href="#font_4_9" transform="matrix(7.9701,0,0,-7.9701,219.6709,103.36901)"/>
<path transform="matrix(1,0,0,-1,-3.509,-3.0859986)" stroke-width=".74721" stroke-linecap="butt" stroke-miterlimit="10" stroke-linejoin="miter" fill="none" stroke="#000000" d="M40.74522-93.85674"/>
<use data-text="O" xlink:href="#font_5_9" transform="matrix(7.9701,0,0,-7.9701,7.611,88.737)" fill="#8c5729"/>
<use data-text="r" xlink:href="#font_5_7" transform="matrix(7.9701,0,0,-7.9701,13.811739,88.737)" fill="#8c5729"/>
<use data-text="i" xlink:href="#font_5_4" transform="matrix(7.9701,0,0,-7.9701,17.350464,88.737)" fill="#8c5729"/>
<use data-text="g" xlink:href="#font_5_3" transform="matrix(7.9701,0,0,-7.9701,19.566153,88.737)" fill="#8c5729"/>
<use data-text="i" xlink:href="#font_5_4" transform="matrix(7.9701,0,0,-7.9701,23.551203,88.737)" fill="#8c5729"/>
<use data-text="n" xlink:href="#font_5_6" transform="matrix(7.9701,0,0,-7.9701,25.766892,88.737)" fill="#8c5729"/>
<use data-text="a" xlink:href="#font_5_1" transform="matrix(7.9701,0,0,-7.9701,30.198267,88.737)" fill="#8c5729"/>
<use data-text="l" xlink:href="#font_5_5" transform="matrix(7.9701,0,0,-7.9701,34.183317,88.737)" fill="#8c5729"/>
<use data-text="&amp;" xlink:href="#font_4_17" transform="matrix(7.9701,0,0,-7.9701,38.391,88.737)"/>
<use data-text="t" xlink:href="#font_5_8" transform="matrix(7.9701,0,0,-7.9701,46.584,88.737)" fill="#4a8fe3"/>
<use data-text="a" xlink:href="#font_5_1" transform="matrix(7.9701,0,0,-7.9701,49.238046,88.737)" fill="#4a8fe3"/>
<use data-text="r" xlink:href="#font_5_7" transform="matrix(7.9701,0,0,-7.9701,53.223096,88.737)" fill="#4a8fe3"/>
<use data-text="g" xlink:href="#font_5_3" transform="matrix(7.9701,0,0,-7.9701,56.682119,88.737)" fill="#4a8fe3"/>
<use data-text="e" xlink:href="#font_5_2" transform="matrix(7.9701,0,0,-7.9701,60.667169,88.737)" fill="#4a8fe3"/>
<use data-text="t" xlink:href="#font_5_8" transform="matrix(7.9701,0,0,-7.9701,64.205898,88.737)" fill="#4a8fe3"/>
<use data-text="n" xlink:href="#font_4_10" transform="matrix(7.9701,0,0,-7.9701,25.946,98.201007)"/>
<use data-text="o" xlink:href="#font_4_11" transform="matrix(7.9701,0,0,-7.9701,29.93105,98.201007)"/>
<use data-text="r" xlink:href="#font_4_13" transform="matrix(7.9701,0,0,-7.9701,33.9161,98.201007)"/>
<use data-text="m" xlink:href="#font_4_9" transform="matrix(7.9701,0,0,-7.9701,36.570146,98.201007)"/>
<use data-text="a" xlink:href="#font_4_2" transform="matrix(7.9701,0,0,-7.9701,42.77088,98.201007)"/>
<use data-text="l" xlink:href="#font_4_8" transform="matrix(7.9701,0,0,-7.9701,46.309606,98.201007)"/>
<path transform="matrix(1,0,0,-1,-3.509,-3.0859986)" stroke-width=".74721" stroke-linecap="butt" stroke-miterlimit="10" stroke-linejoin="miter" fill="none" stroke="#000000" d="M27.54205-50.66066"/>
<use data-text="v" xlink:href="#font_6_2" transform="matrix(9.9626,0,0,-9.9626,25.153,53.122)"/>
<use data-text="k" xlink:href="#font_7_1" transform="matrix(6.9738,0,0,-6.9738,29.747,54.617)"/>
<path transform="matrix(1,0,0,-1,-3.509,-3.0859986)" stroke-width=".74721" stroke-linecap="butt" stroke-miterlimit="10" stroke-linejoin="miter" fill="none" stroke="#000000" d="M29.1336-23.02893"/>
<use data-text="u" xlink:href="#font_6_1" transform="matrix(9.9626,0,0,-9.9626,26.744999,25.491005)" fill="#8c5729"/>
<use data-text="k" xlink:href="#font_7_1" transform="matrix(6.9738,0,0,-6.9738,31.891999,26.985009)" fill="#8c5729"/>
<path transform="matrix(1,0,0,-1,-3.509,-3.0859986)" stroke-width=".74721" stroke-linecap="butt" stroke-miterlimit="10" stroke-linejoin="miter" fill="none" stroke="#000000" d="M59.89615-36.5982"/>
<use data-text="&#x02c6;" xlink:href="#font_8_1" transform="matrix(9.9626,0,0,-9.9626,57.59,41.551004)" fill="#4a8fe3"/>
<use data-text="u" xlink:href="#font_6_1" transform="matrix(9.9626,0,0,-9.9626,57.507,41.689004)" fill="#4a8fe3"/>
<use data-text="k" xlink:href="#font_7_1" transform="matrix(6.9738,0,0,-6.9738,62.654,43.184007)" fill="#4a8fe3"/>
<path transform="matrix(1,0,0,-1,-3.509,-3.0859986)" stroke-width=".74721" stroke-linecap="butt" stroke-miterlimit="10" stroke-linejoin="miter" fill="none" stroke="#000000" d="M91.82434-9.43723"/>
<use data-text="N" xlink:href="#font_9_1" transform="matrix(9.9626,0,0,-9.9626,89.435,14.944)"/>
<use data-text="k" xlink:href="#font_7_1" transform="matrix(6.9738,0,0,-6.9738,97.60899,16.438004)"/>
<use data-text="&#x222a;" xlink:href="#font_9_2" transform="matrix(9.9626,0,0,-9.9626,104.72499,14.944)"/>
<use data-text="{" xlink:href="#font_9_3" transform="matrix(9.9626,0,0,-9.9626,113.58175,14.944)"/>
<use data-text="u" xlink:href="#font_6_1" transform="matrix(9.9626,0,0,-9.9626,118.56199,14.944)" fill="#8c5729"/>
<use data-text="k" xlink:href="#font_7_1" transform="matrix(6.9738,0,0,-6.9738,123.70899,16.438004)" fill="#8c5729"/>
<use data-text="}" xlink:href="#font_9_4" transform="matrix(9.9626,0,0,-9.9626,128.611,14.944)"/>
<path transform="matrix(1,0,0,-1,-3.509,-3.0859986)" stroke-width=".74721" stroke-linecap="butt" stroke-miterlimit="10" stroke-linejoin="miter" fill="none" stroke="#000000" d="M192.83188-8.06982"/>
<use data-text="N" xlink:href="#font_9_1" transform="matrix(9.9626,0,0,-9.9626,190.441,13.576004)"/>
<use data-text="k" xlink:href="#font_7_1" transform="matrix(6.9738,0,0,-6.9738,198.61499,15.071007)"/>
<use data-text="&#x222a;" xlink:href="#font_9_2" transform="matrix(9.9626,0,0,-9.9626,205.73099,13.576004)"/>
<use data-text="{" xlink:href="#font_9_3" transform="matrix(9.9626,0,0,-9.9626,214.58774,13.576004)"/>
<use data-text="&#x02c6;" xlink:href="#font_8_1" transform="matrix(9.9626,0,0,-9.9626,219.65099,13.438004)" fill="#4a8fe3"/>
<use data-text="u" xlink:href="#font_6_1" transform="matrix(9.9626,0,0,-9.9626,219.568,13.576004)" fill="#4a8fe3"/>
<use data-text="k" xlink:href="#font_7_1" transform="matrix(6.9738,0,0,-6.9738,224.715,15.071007)" fill="#4a8fe3"/>
<use data-text="}" xlink:href="#font_9_4" transform="matrix(9.9626,0,0,-9.9626,229.61699,13.576004)"/>
</svg>
